<!-- Generated by IcoMoon.io -->
<svg version="1.1" xmlns="http://www.w3.org/2000/svg" width="35" height="32" viewBox="0 0 35 32">
<title>icon4</title>
<path d="M22.613 18.274h-19.546l0.049-0.084 9.725-16.844zM3.26 18.163h19.159l-9.579-16.592z"></path>
<path d="M31.767 18.274h-19.546l0.049-0.084 9.725-16.844zM12.415 18.163h19.159l-9.579-16.592z"></path>
<path d="M35.028 30.335h-35.028l0.048-0.084 17.466-30.251 0.048 0.084zM0.193 30.223h34.639l-17.318-30z"></path>
<path d="M27.287 32h-19.546l0.049-0.084 9.725-16.844zM7.934 31.888h19.162l-9.582-16.592z"></path>
<path d="M8.583 15.263l0.092-0.063 10.305 15.084-0.092 0.063-10.305-15.084z"></path>
<path d="M17.289 30.284l8.805-15.256 0.097 0.056-8.805 15.256-0.097-0.056z"></path>
<path d="M17.603 9.408c0 0.095-0.077 0.171-0.172 0.171s-0.172-0.077-0.172-0.171c0-0.095 0.077-0.171 0.172-0.171s0.172 0.077 0.172 0.171z"></path>
<path d="M17.432 9.635c-0 0-0 0-0.001 0-0.126 0-0.227-0.102-0.227-0.227s0.102-0.227 0.227-0.227c0.126 0 0.227 0.102 0.227 0.227 0 0 0 0 0 0.001v-0c-0 0.125-0.102 0.226-0.227 0.227h-0zM17.432 9.293c-0 0-0 0-0.001 0-0.064 0-0.116 0.052-0.116 0.116s0.052 0.116 0.116 0.116c0.064 0 0.116-0.052 0.116-0.116v0c0-0 0-0 0-0.001 0-0.064-0.052-0.115-0.115-0.115 0 0 0 0 0 0v0z"></path>
<path d="M14.888 4.679c0 0.095-0.077 0.171-0.171 0.171s-0.171-0.077-0.171-0.171c0-0.095 0.077-0.171 0.171-0.171s0.171 0.077 0.171 0.171z"></path>
<path d="M14.716 4.906c-0.125-0.001-0.226-0.102-0.226-0.227s0.102-0.227 0.227-0.227 0.227 0.102 0.227 0.227v0c0 0 0 0 0 0 0 0.126-0.102 0.227-0.227 0.227-0 0-0.001 0-0.001 0h0zM14.716 4.564c-0.063 0.001-0.115 0.052-0.115 0.116s0.052 0.116 0.116 0.116 0.116-0.052 0.116-0.116c0-0 0-0 0-0.001v0c0 0 0 0 0 0 0-0.064-0.052-0.115-0.115-0.115-0.001 0-0.001 0-0.002 0h0z"></path>
<path d="M20.309 4.679c0 0.095-0.077 0.171-0.172 0.171s-0.172-0.077-0.172-0.171c0-0.095 0.077-0.171 0.172-0.171s0.172 0.077 0.172 0.171z"></path>
<path d="M20.14 4.906c-0.001 0-0.003 0-0.004 0-0.126 0-0.227-0.102-0.227-0.227s0.102-0.227 0.227-0.227c0.126 0 0.227 0.102 0.227 0.227v0c0 0 0 0 0 0 0 0.124-0.1 0.225-0.223 0.227h-0zM20.14 4.564c-0.001-0-0.003-0-0.004-0-0.064 0-0.116 0.052-0.116 0.116s0.052 0.116 0.116 0.116c0.064 0 0.116-0.052 0.116-0.116 0-0 0-0 0-0.001v0c-0-0.062-0.050-0.113-0.112-0.115h-0z"></path>
<path d="M8.865 15.326c0 0.095-0.077 0.171-0.171 0.171s-0.171-0.077-0.171-0.171c0-0.095 0.077-0.171 0.171-0.171s0.171 0.077 0.171 0.171z"></path>
<path d="M8.693 15.553c-0.126 0-0.227-0.102-0.227-0.227s0.102-0.227 0.227-0.227c0.126 0 0.227 0.102 0.227 0.227v0c0 0.126-0.102 0.227-0.227 0.227v0zM8.693 15.21c-0.064 0-0.116 0.052-0.116 0.116s0.052 0.116 0.116 0.116c0.064 0 0.116-0.052 0.116-0.116v0c0-0.064-0.052-0.116-0.116-0.116v0z"></path>
<path d="M10.841 18.218c0 0.095-0.077 0.172-0.171 0.172s-0.171-0.077-0.171-0.172c0-0.095 0.077-0.172 0.171-0.172s0.171 0.077 0.171 0.172z"></path>
<path d="M10.669 18.446c-0.126 0-0.227-0.102-0.227-0.227s0.102-0.227 0.227-0.227c0.126 0 0.227 0.102 0.227 0.227v0c-0 0.125-0.102 0.227-0.227 0.227h-0zM10.669 18.103c-0.064 0-0.116 0.052-0.116 0.116s0.052 0.116 0.116 0.116c0.064 0 0.116-0.052 0.116-0.116v0c0-0.064-0.052-0.116-0.116-0.116v0z"></path>
<path d="M26.318 15.141c0 0.095-0.077 0.171-0.172 0.171s-0.172-0.077-0.172-0.171c0-0.095 0.077-0.171 0.172-0.171s0.172 0.077 0.172 0.171z"></path>
<path d="M26.146 15.368c-0.126 0-0.227-0.102-0.227-0.227s0.102-0.227 0.227-0.227c0.126 0 0.227 0.102 0.227 0.227v0c0 0.126-0.102 0.227-0.227 0.227v0zM26.146 15.025c-0.064 0-0.116 0.052-0.116 0.116s0.052 0.116 0.116 0.116c0.064 0 0.116-0.052 0.116-0.116v0c0-0.064-0.052-0.116-0.116-0.116v0z"></path>
<path d="M24.493 18.218c0 0.095-0.077 0.172-0.172 0.172s-0.172-0.077-0.172-0.172c0-0.095 0.077-0.172 0.172-0.172s0.172 0.077 0.172 0.172z"></path>
<path d="M24.321 18.446c-0.126 0-0.227-0.102-0.227-0.227s0.102-0.227 0.227-0.227c0.126 0 0.227 0.102 0.227 0.227v0c-0 0.125-0.102 0.227-0.227 0.227h-0zM24.321 18.103c-0.064 0-0.116 0.052-0.116 0.116s0.052 0.116 0.116 0.116c0.064 0 0.116-0.052 0.116-0.116v0c0-0.064-0.052-0.116-0.116-0.116v0z"></path>
<path d="M18.24 29.049c0 0.095-0.077 0.172-0.172 0.172s-0.172-0.077-0.172-0.172c0-0.095 0.077-0.172 0.172-0.172s0.172 0.077 0.172 0.172z"></path>
<path d="M18.069 29.276c-0.126 0-0.227-0.102-0.227-0.227s0.102-0.227 0.227-0.227c0.126 0 0.227 0.102 0.227 0.227v0c0 0.126-0.102 0.227-0.227 0.227v0zM18.069 28.933c-0.064 0-0.116 0.052-0.116 0.116s0.052 0.116 0.116 0.116c0.064 0 0.116-0.052 0.116-0.116v0c0-0.064-0.052-0.116-0.116-0.116v0z"></path>
<path d="M14.996 4.851c0 0.154-0.125 0.279-0.279 0.279s-0.279-0.125-0.279-0.279c0-0.154 0.125-0.279 0.279-0.279s0.279 0.125 0.279 0.279z"></path>
<path d="M14.716 5.241c-0.216 0-0.391-0.175-0.391-0.391s0.175-0.391 0.391-0.391c0.216 0 0.391 0.175 0.391 0.391v0c0 0.216-0.175 0.391-0.391 0.391v0zM14.716 4.683c-0.093 0-0.168 0.075-0.168 0.168s0.075 0.168 0.168 0.168c0.093 0 0.168-0.075 0.168-0.168v0c0-0.093-0.075-0.168-0.168-0.168v0z"></path>
<path d="M20.417 4.679c0 0.154-0.125 0.279-0.279 0.279s-0.279-0.125-0.279-0.279c0-0.154 0.125-0.279 0.279-0.279s0.279 0.125 0.279 0.279z"></path>
<path d="M20.14 5.070c-0.216 0-0.391-0.175-0.391-0.391s0.175-0.391 0.391-0.391c0.216 0 0.391 0.175 0.391 0.391v0c0 0.216-0.175 0.391-0.391 0.391v0zM20.14 4.511c-0.093 0-0.168 0.075-0.168 0.168s0.075 0.168 0.168 0.168c0.093 0 0.168-0.075 0.168-0.168v0c0-0.093-0.075-0.168-0.168-0.168v0z"></path>
<path d="M17.711 9.408c0 0.154-0.125 0.279-0.279 0.279s-0.279-0.125-0.279-0.279c0-0.154 0.125-0.279 0.279-0.279s0.279 0.125 0.279 0.279z"></path>
<path d="M17.432 9.799c-0.216 0-0.391-0.175-0.391-0.391s0.175-0.391 0.391-0.391c0.216 0 0.391 0.175 0.391 0.391v0c0 0.216-0.175 0.391-0.391 0.391v0zM17.432 9.241c-0.093 0-0.168 0.075-0.168 0.168s0.075 0.168 0.168 0.168c0.093 0 0.168-0.075 0.168-0.168v0c0-0.093-0.075-0.168-0.168-0.168v0z"></path>
<path d="M8.973 15.326c0 0.154-0.125 0.279-0.279 0.279s-0.279-0.125-0.279-0.279c0-0.154 0.125-0.279 0.279-0.279s0.279 0.125 0.279 0.279z"></path>
<path d="M8.693 15.717c-0.216 0-0.391-0.175-0.391-0.391s0.175-0.391 0.391-0.391c0.216 0 0.391 0.175 0.391 0.391v0c0 0.216-0.175 0.391-0.391 0.391v0zM8.693 15.158c-0.093 0-0.168 0.075-0.168 0.168s0.075 0.168 0.168 0.168c0.093 0 0.168-0.075 0.168-0.168v0c0-0.093-0.075-0.168-0.168-0.168v0z"></path>
<path d="M10.949 18.218c0 0.154-0.125 0.279-0.279 0.279s-0.279-0.125-0.279-0.279c0-0.154 0.125-0.279 0.279-0.279s0.279 0.125 0.279 0.279z"></path>
<path d="M10.669 18.61c-0.216 0-0.391-0.175-0.391-0.391s0.175-0.391 0.391-0.391c0.216 0 0.391 0.175 0.391 0.391v0c0 0.216-0.175 0.391-0.391 0.391v0zM10.669 18.051c-0.093 0-0.168 0.075-0.168 0.168s0.075 0.168 0.168 0.168c0.093 0 0.168-0.075 0.168-0.168v0c0-0.093-0.075-0.168-0.168-0.168v0z"></path>
<path d="M24.601 18.218c0 0.154-0.125 0.279-0.279 0.279s-0.279-0.125-0.279-0.279c0-0.154 0.125-0.279 0.279-0.279s0.279 0.125 0.279 0.279z"></path>
<path d="M24.321 18.61c-0.216 0-0.391-0.175-0.391-0.391s0.175-0.391 0.391-0.391c0.216 0 0.391 0.175 0.391 0.391v0c0 0.216-0.175 0.391-0.391 0.391v0zM24.321 18.051c-0.093 0-0.168 0.075-0.168 0.168s0.075 0.168 0.168 0.168c0.093 0 0.168-0.075 0.168-0.168v0c0-0.093-0.075-0.168-0.168-0.168v0z"></path>
<path d="M26.37 15.154c0 0.154-0.125 0.279-0.279 0.279s-0.279-0.125-0.279-0.279c0-0.154 0.125-0.279 0.279-0.279s0.279 0.125 0.279 0.279z"></path>
<path d="M26.090 15.545c-0.216 0-0.391-0.175-0.391-0.391s0.175-0.391 0.391-0.391c0.216 0 0.391 0.175 0.391 0.391v0c0 0.216-0.175 0.391-0.391 0.391v0zM26.090 14.987c-0.093 0-0.168 0.075-0.168 0.168s0.075 0.168 0.168 0.168c0.093 0 0.168-0.075 0.168-0.168v0c0-0.093-0.075-0.168-0.168-0.168v0z"></path>
<path d="M18.348 29.049c0 0.154-0.125 0.279-0.279 0.279s-0.279-0.125-0.279-0.279c0-0.154 0.125-0.279 0.279-0.279s0.279 0.125 0.279 0.279z"></path>
<path d="M18.069 29.44c-0.216 0-0.391-0.175-0.391-0.391s0.175-0.391 0.391-0.391c0.216 0 0.391 0.175 0.391 0.391v0c0 0.216-0.175 0.391-0.391 0.391v0zM18.069 28.881c-0.093 0-0.168 0.075-0.168 0.168s0.075 0.168 0.168 0.168c0.093 0 0.168-0.075 0.168-0.168v0c0-0.093-0.075-0.168-0.168-0.168v0z"></path>
</svg>
