<!-- Generated by IcoMoon.io -->
<svg version="1.1" xmlns="http://www.w3.org/2000/svg" width="32" height="32" viewBox="0 0 32 32">
<title>icon5</title>
<path d="M16 32c-8.801-0.012-15.931-7.149-15.931-15.952 0-8.81 7.142-15.952 15.952-15.952s15.952 7.142 15.952 15.952c0 6.568-3.97 12.209-9.641 14.655l-0.104 0.040c-1.829 0.795-3.959 1.257-6.197 1.257-0.011 0-0.022 0-0.033-0h0.002zM16 0.089c-8.75 0.012-15.839 7.108-15.839 15.86 0 8.759 7.101 15.86 15.86 15.86s15.86-7.101 15.86-15.86c0-6.53-3.947-12.139-9.585-14.57l-0.103-0.040c-1.819-0.79-3.937-1.25-6.162-1.25-0.011 0-0.022 0-0.033 0h0.002z"></path>
<path d="M16 21.431c-5.898-0.001-10.679-4.783-10.679-10.681s4.782-10.681 10.681-10.681 10.681 4.782 10.681 10.681c0 2.951-1.196 5.622-3.131 7.555l-0 0c-1.922 1.931-4.582 3.126-7.522 3.126-0.011 0-0.022-0-0.033-0h0.002zM16 0.157c-5.85 0-10.593 4.743-10.593 10.593s4.743 10.593 10.593 10.593 10.593-4.743 10.593-10.593c0-2.925-1.186-5.573-3.103-7.49v0c-1.907-1.917-4.546-3.103-7.462-3.103-0.010 0-0.020 0-0.030 0h0.002z"></path>
<path d="M16 32c-0 0-0 0-0 0-5.899 0-10.681-4.782-10.681-10.681s4.782-10.681 10.681-10.681c5.899 0 10.681 4.782 10.681 10.681 0 2.95-1.195 5.62-3.128 7.553v0c-1.922 1.933-4.584 3.129-7.524 3.129-0.010 0-0.020 0-0.030-0h0.002zM16 10.726c-5.85 0-10.593 4.743-10.593 10.593s4.743 10.593 10.593 10.593 10.593-4.743 10.593-10.593c0-2.925-1.186-5.573-3.103-7.49v0c-1.906-1.916-4.545-3.103-7.462-3.103-0.010 0-0.020 0-0.030 0h0.002z"></path>
<path d="M16 21.363c-2.962 0-5.363-2.401-5.363-5.363s2.401-5.363 5.363-5.363c2.962 0 5.363 2.401 5.363 5.363v0c-0.004 2.96-2.402 5.359-5.363 5.363h-0zM16 10.726c-2.913 0-5.274 2.361-5.274 5.274s2.361 5.274 5.274 5.274c2.913 0 5.274-2.361 5.274-5.274v0c-0.003-2.912-2.363-5.271-5.274-5.274h-0z"></path>
<path d="M6.767 15.99h18.467v0.089h-18.467v-0.089z"></path>
<path d="M15.956 10.681h0.089v10.637h-0.089v-10.637z"></path>
<path d="M16.222 10.681c0 0.122-0.099 0.222-0.222 0.222s-0.222-0.099-0.222-0.222c0-0.122 0.099-0.222 0.222-0.222s0.222 0.099 0.222 0.222z"></path>
<path d="M16 10.992c-0.171 0-0.31-0.139-0.31-0.31s0.139-0.31 0.31-0.31c0.171 0 0.31 0.139 0.31 0.31v0c0 0.171-0.139 0.31-0.31 0.31v0zM16 10.548c-0.073 0-0.133 0.060-0.133 0.133s0.060 0.133 0.133 0.133c0.073 0 0.133-0.060 0.133-0.133v0c0-0.073-0.060-0.133-0.133-0.133v0z"></path>
<path d="M16.222 16c0 0.122-0.099 0.222-0.222 0.222s-0.222-0.099-0.222-0.222c0-0.122 0.099-0.222 0.222-0.222s0.222 0.099 0.222 0.222z"></path>
<path d="M16 16.31c-0.171 0-0.31-0.139-0.31-0.31s0.139-0.31 0.31-0.31c0.171 0 0.31 0.139 0.31 0.31v0c0 0.171-0.139 0.31-0.31 0.31v0zM16 15.867c-0.073 0-0.133 0.060-0.133 0.133s0.060 0.133 0.133 0.133c0.073 0 0.133-0.060 0.133-0.133v0c0-0.073-0.060-0.133-0.133-0.133v0z"></path>
<path d="M16.222 21.319c0 0.122-0.099 0.222-0.222 0.222s-0.222-0.099-0.222-0.222c0-0.122 0.099-0.222 0.222-0.222s0.222 0.099 0.222 0.222z"></path>
<path d="M16 21.629c-0.171 0-0.31-0.139-0.31-0.31s0.139-0.31 0.31-0.31c0.171 0 0.31 0.139 0.31 0.31v0c0 0.171-0.139 0.31-0.31 0.31v0zM16 21.186c-0.073 0-0.133 0.060-0.133 0.133s0.060 0.133 0.133 0.133c0.073 0 0.133-0.060 0.133-0.133v0c0-0.073-0.060-0.133-0.133-0.133v0z"></path>
<path d="M21.54 16c0 0.122-0.099 0.222-0.222 0.222s-0.222-0.099-0.222-0.222c0-0.122 0.099-0.222 0.222-0.222s0.222 0.099 0.222 0.222z"></path>
<path d="M21.319 16.31c-0.171 0-0.31-0.139-0.31-0.31s0.139-0.31 0.31-0.31c0.171 0 0.31 0.139 0.31 0.31v0c0 0.171-0.139 0.31-0.31 0.31v0zM21.319 15.867c-0.073 0-0.133 0.060-0.133 0.133s0.060 0.133 0.133 0.133c0.073 0 0.133-0.060 0.133-0.133v0c0-0.073-0.060-0.133-0.133-0.133v0z"></path>
<path d="M25.455 16c0 0.122-0.099 0.222-0.222 0.222s-0.222-0.099-0.222-0.222c0-0.122 0.099-0.222 0.222-0.222s0.222 0.099 0.222 0.222z"></path>
<path d="M25.233 16.31c-0.171 0-0.31-0.139-0.31-0.31s0.139-0.31 0.31-0.31c0.171 0 0.31 0.139 0.31 0.31v0c0 0.171-0.139 0.31-0.31 0.31v0zM25.233 15.867c-0.073 0-0.133 0.060-0.133 0.133s0.060 0.133 0.133 0.133c0.073 0 0.133-0.060 0.133-0.133v0c0-0.073-0.060-0.133-0.133-0.133v0z"></path>
<path d="M10.903 16c0 0.122-0.099 0.222-0.222 0.222s-0.222-0.099-0.222-0.222c0-0.122 0.099-0.222 0.222-0.222s0.222 0.099 0.222 0.222z"></path>
<path d="M10.681 16.31c-0.171 0-0.31-0.139-0.31-0.31s0.139-0.31 0.31-0.31c0.171 0 0.31 0.139 0.31 0.31v0c0 0.171-0.139 0.31-0.31 0.31v0zM10.681 15.867c-0.073 0-0.133 0.060-0.133 0.133s0.060 0.133 0.133 0.133c0.073 0 0.133-0.060 0.133-0.133v0c0-0.073-0.060-0.133-0.133-0.133v0z"></path>
<path d="M6.988 16.034c0 0.122-0.099 0.222-0.222 0.222s-0.222-0.099-0.222-0.222c0-0.122 0.099-0.222 0.222-0.222s0.222 0.099 0.222 0.222z"></path>
<path d="M6.767 16.344c-0.171 0-0.31-0.139-0.31-0.31s0.139-0.31 0.31-0.31c0.171 0 0.31 0.139 0.31 0.31v0c0 0.171-0.139 0.31-0.31 0.31v0zM6.767 15.901c-0.073 0-0.133 0.060-0.133 0.133s0.060 0.133 0.133 0.133c0.073 0 0.133-0.060 0.133-0.133v0c0-0.073-0.060-0.133-0.133-0.133v0z"></path>
</svg>
