<!-- Generated by IcoMoon.io -->
<svg version="1.1" xmlns="http://www.w3.org/2000/svg" width="32" height="32" viewBox="0 0 32 32">
<title>icon2</title>
<path d="M27.357 27.357h-22.714v-22.714h22.714zM4.769 27.231h22.463v-22.463h-22.463z"></path>
<path d="M25.212 29.156l-22.369-3.945 3.945-22.369 0.063 0.011 22.306 3.934-0.011 0.063zM2.989 25.11l22.121 3.901 3.901-22.121-22.121-3.901z"></path>
<path d="M22.788 30.557l-21.345-7.769 0.021-0.059 7.748-21.286 0.059 0.021 21.286 7.748zM1.604 22.714l21.109 7.682 7.682-21.109-21.109-7.682z"></path>
<path d="M20.157 31.514l-19.671-11.357 11.357-19.671 19.671 11.357zM0.658 20.111l19.451 11.231 11.231-19.451-19.451-11.231z"></path>
<path d="M17.4 32l-0.048-0.040-17.352-14.56 14.6-17.4 17.4 14.6-0.040 0.048zM0.177 17.384l17.207 14.439 14.439-17.207-17.207-14.439z"></path>
<path d="M14.6 32l-0.040-0.048-14.56-17.352 0.048-0.040 17.352-14.56 0.040 0.048 14.56 17.352-0.048 0.040zM0.177 14.616l14.439 17.207 17.207-14.439-14.439-17.207z"></path>
<path d="M11.843 31.514l-11.357-19.671 19.671-11.357 11.357 19.671zM0.658 11.889l11.231 19.451 19.451-11.231-11.231-19.451z"></path>
<path d="M9.212 30.557l-0.021-0.059-7.748-21.286 0.059-0.021 21.286-7.748 0.021 0.059 7.748 21.286zM1.604 9.286l7.682 21.109 21.109-7.682-7.682-21.109z"></path>
<path d="M6.788 29.156l-0.011-0.063-3.933-22.306 0.063-0.011 22.307-3.933 0.011 0.063 3.933 22.307-0.063 0.011zM2.989 6.889l3.9 22.121 22.121-3.9-3.9-22.121z"></path>
<path d="M22.638 22.638h-13.277v-13.277h13.277zM9.424 22.576h13.151v-13.151h-13.151z"></path>
<path d="M21.385 23.691l-13.075-2.306 2.306-13.075 13.075 2.306zM8.382 21.333l12.951 2.285 2.285-12.951-12.951-2.285z"></path>
<path d="M19.967 24.508l-12.476-4.541 4.541-12.476 12.476 4.541zM7.572 19.928l12.361 4.498 4.498-12.361-12.361-4.498z"></path>
<path d="M18.43 25.069l-0.027-0.016-11.471-6.623 0.016-0.027 6.623-11.471 11.499 6.638zM7.017 18.407l11.389 6.576 6.576-11.389-11.389-6.576z"></path>
<path d="M16.816 25.352l-10.165-8.536 0.020-0.024 8.513-10.141 0.024 0.020 10.144 8.513zM6.736 16.811l10.075 8.454 8.454-10.075-10.075-8.454z"></path>
<path d="M15.184 25.352l-8.533-10.168 0.024-0.020 10.141-8.513 0.020 0.024 8.516 10.141zM6.738 15.187l8.451 10.077 10.075-8.454-8.454-10.075z"></path>
<path d="M13.57 25.069l-0.016-0.028-6.623-11.471 11.498-6.638 6.639 11.498-0.028 0.016zM7.017 13.593l6.576 11.389 11.389-6.576-6.576-11.389z"></path>
<path d="M12.033 24.508l-4.541-12.476 12.476-4.541 4.541 12.476zM7.572 12.070l4.498 12.361 12.361-4.498-4.498-12.361z"></path>
<path d="M10.615 23.69l-0.006-0.031-2.3-13.044 0.031-0.006 13.044-2.3 0.006 0.031 2.3 13.044-0.031 0.006zM8.382 10.667l2.285 12.951 12.951-2.285-2.285-12.951z"></path>
<path d="M18.768 18.768h-5.537v-5.537h5.537zM13.263 18.737h5.474v-5.474h-5.474z"></path>
<path d="M18.246 19.208h-0.016l-5.438-0.959 0.962-5.453 5.453 0.962v0.016zM12.829 18.22l5.391 0.951 0.951-5.392-5.392-0.951z"></path>
<path d="M17.655 19.549l-0.014-0.006-5.189-1.889 0.006-0.014 1.889-5.189 5.203 1.894-0.006 0.014zM12.491 17.636l5.145 1.873 1.873-5.145-5.145-1.873z"></path>
<path d="M17.013 19.782l-0.014-0.008-4.782-2.761 0.008-0.014 2.761-4.782 0.014 0.008 4.782 2.761-0.008 0.014zM12.261 17.004l4.743 2.735 2.735-4.743-4.743-2.735z"></path>
<path d="M16.341 19.901l-0.012-0.011-4.23-3.549 0.010-0.012 3.549-4.23 4.242 3.559-0.011 0.012zM12.144 16.338l4.194 3.519 3.519-4.194-4.194-3.519z"></path>
<path d="M15.659 19.901l-3.559-4.242 4.242-3.559 0.010 0.012 3.549 4.23-0.013 0.010zM12.145 15.662l3.519 4.194 4.194-3.519-3.519-4.194z"></path>
<path d="M14.987 19.782l-0.008-0.014-2.761-4.782 0.014-0.008 4.782-2.761 0.008 0.014 2.761 4.782-0.014 0.008zM12.261 14.996l2.735 4.743 4.743-2.735-2.735-4.743z"></path>
<path d="M14.345 19.549l-0.006-0.015-1.889-5.188 5.203-1.894 0.006 0.015 1.889 5.188-0.015 0.006zM12.491 14.364l1.873 5.145 5.145-1.873-1.873-5.145z"></path>
<path d="M13.754 19.208l-0.003-0.016-0.959-5.438 5.453-0.962 0.003 0.016 0.959 5.438-0.016 0.003zM12.829 13.779l0.951 5.392 5.392-0.951-0.951-5.392z"></path>
</svg>
