<!-- Generated by IcoMoon.io -->
<svg version="1.1" xmlns="http://www.w3.org/2000/svg" width="28" height="32" viewBox="0 0 28 32">
<title>icon3</title>
<path d="M14.125 0.306c0 0.115-0.093 0.207-0.207 0.207s-0.207-0.093-0.207-0.207c0-0.115 0.093-0.207 0.207-0.207s0.207 0.093 0.207 0.207z"></path>
<path d="M13.917 0.557c-0.138-0-0.251-0.113-0.251-0.251s0.112-0.251 0.251-0.251 0.251 0.112 0.251 0.251v0c-0 0.139-0.113 0.251-0.252 0.251 0 0 0 0 0 0v0zM13.917 0.142c-0.090 0-0.163 0.073-0.163 0.164s0.073 0.164 0.164 0.164 0.164-0.073 0.164-0.164v0c-0.001-0.090-0.074-0.162-0.164-0.162 0 0 0 0-0 0v0z"></path>
<path d="M14.070 31.695c0 0.084-0.068 0.152-0.152 0.152s-0.152-0.068-0.152-0.152c0-0.084 0.068-0.152 0.152-0.152s0.152 0.068 0.152 0.152z"></path>
<path d="M13.917 31.891c-0.108-0-0.196-0.088-0.196-0.196 0-0.025 0.005-0.049 0.013-0.071l-0 0.001c0.019-0.049 0.056-0.087 0.102-0.108l0.001-0c0.023-0.011 0.051-0.017 0.080-0.017 0.025 0 0.049 0.005 0.071 0.014l-0.001-0c0.074 0.029 0.126 0.1 0.126 0.183 0 0.108-0.087 0.196-0.195 0.196h-0zM13.917 31.585c-0.016 0-0.031 0.004-0.044 0.010l0.001-0c-0.026 0.012-0.047 0.033-0.057 0.060l-0 0.001c-0.005 0.012-0.008 0.026-0.008 0.041s0.003 0.029 0.009 0.042l-0-0.001c0.012 0.026 0.034 0.046 0.060 0.057l0.001 0c0.011 0.005 0.025 0.007 0.039 0.007 0.060 0 0.109-0.049 0.109-0.109 0-0.046-0.029-0.086-0.069-0.101l-0.001-0c-0.011-0.004-0.024-0.006-0.037-0.006h-0z"></path>
<path d="M13.917 31.796l-0.044-0.025-13.655-7.884v-15.818l0.044-0.025 13.655-7.884 0.044 0.025 13.656 7.884v15.818l-0.044 0.025zM0.393 23.786l13.524 7.808 13.525-7.808v-15.617l-13.525-7.809-13.524 7.809z"></path>
<path d="M27.606 23.88h-27.375l0.038-0.066 13.65-23.642 0.038 0.066zM0.381 23.792h27.073l-13.535-23.446z"></path>
<path d="M13.917 23.923l-6.881-11.919h13.763zM7.187 12.091l6.73 11.657 6.731-11.657z"></path>
<path d="M0.284 8.156l0.044-0.076 6.806 3.929-0.044 0.076-6.806-3.929z"></path>
<path d="M20.702 12.012l6.807-3.928 0.044 0.076-6.807 3.928-0.044-0.076z"></path>
<path d="M13.874 23.836h0.087v7.859h-0.087v-7.859z"></path>
<path d="M0.458 8.118c0 0.084-0.068 0.152-0.152 0.152s-0.152-0.068-0.152-0.152c0-0.084 0.068-0.152 0.152-0.152s0.152 0.068 0.152 0.152z"></path>
<path d="M0.306 8.314c-0 0-0 0-0 0-0.108 0-0.196-0.088-0.196-0.196 0-0.025 0.005-0.049 0.013-0.071l-0 0.001c0.019-0.049 0.056-0.087 0.102-0.108l0.001-0c0.023-0.011 0.051-0.018 0.080-0.018 0.025 0 0.049 0.005 0.071 0.014l-0.001-0c0.075 0.029 0.126 0.1 0.126 0.183 0 0.025-0.005 0.049-0.013 0.071l0-0.001c-0.029 0.074-0.1 0.126-0.183 0.126-0 0-0 0-0 0v0zM0.306 8.008c-0.016 0-0.031 0.004-0.044 0.010l0.001-0c-0.026 0.012-0.047 0.033-0.057 0.060l-0 0.001c-0.005 0.011-0.007 0.025-0.007 0.038 0 0.016 0.004 0.031 0.010 0.045l-0-0.001c0.017 0.038 0.055 0.064 0.099 0.064 0.016 0 0.031-0.004 0.045-0.010l-0.001 0c0.038-0.017 0.064-0.055 0.064-0.099 0-0.016-0.003-0.031-0.010-0.045l0 0.001c-0.012-0.026-0.034-0.046-0.060-0.057l-0.001-0c-0.011-0.004-0.024-0.006-0.038-0.006-0.001 0-0.001 0-0.002 0h0z"></path>
<path d="M0.458 23.836c0 0.084-0.068 0.152-0.152 0.152s-0.152-0.068-0.152-0.152c0-0.084 0.068-0.152 0.152-0.152s0.152 0.068 0.152 0.152z"></path>
<path d="M0.306 24.032c-0 0-0 0-0 0-0.108 0-0.196-0.088-0.196-0.196 0-0.025 0.005-0.049 0.013-0.071l-0 0.001c0.019-0.049 0.056-0.087 0.102-0.108l0.001-0c0.023-0.011 0.051-0.017 0.080-0.017 0.025 0 0.049 0.005 0.071 0.014l-0.001-0c0.075 0.029 0.126 0.1 0.126 0.183 0 0.025-0.005 0.049-0.013 0.071l0-0.001c-0.019 0.049-0.055 0.087-0.102 0.108l-0.001 0c-0.023 0.011-0.051 0.017-0.080 0.017-0 0-0 0-0 0h0zM0.306 23.726c-0.016 0-0.031 0.004-0.044 0.010l0.001-0c-0.026 0.012-0.047 0.033-0.057 0.060l-0 0.001c-0.005 0.011-0.007 0.025-0.007 0.038 0 0.016 0.004 0.031 0.010 0.045l-0-0.001c0.017 0.038 0.055 0.064 0.099 0.064 0.016 0 0.031-0.004 0.045-0.010l-0.001 0c0.026-0.012 0.047-0.033 0.057-0.060l0-0.001c0.005-0.012 0.007-0.025 0.007-0.039 0-0.046-0.029-0.086-0.069-0.102l-0.001-0c-0.011-0.004-0.024-0.006-0.038-0.006-0.001 0-0.001 0-0.002 0h0z"></path>
<path d="M27.682 23.836c0 0.084-0.068 0.152-0.152 0.152s-0.152-0.068-0.152-0.152c0-0.084 0.068-0.152 0.152-0.152s0.152 0.068 0.152 0.152z"></path>
<path d="M27.53 24.032c-0 0-0.001 0-0.002 0-0.108 0-0.196-0.088-0.196-0.196 0-0.079 0.047-0.148 0.116-0.179l0.001-0c0.023-0.011 0.051-0.017 0.080-0.017 0.025 0 0.049 0.005 0.071 0.014l-0.001-0c0.074 0.029 0.126 0.1 0.126 0.183 0 0.025-0.005 0.049-0.013 0.071l0-0.001c-0.019 0.049-0.055 0.087-0.102 0.108l-0.001 0c-0.023 0.011-0.051 0.017-0.080 0.017-0 0-0 0-0 0v0zM27.53 23.726c-0.016 0-0.031 0.004-0.044 0.010l0.001-0c-0.026 0.012-0.047 0.033-0.057 0.060l-0 0.001c-0.005 0.012-0.008 0.026-0.008 0.041s0.003 0.029 0.009 0.042l-0-0.001c0.012 0.027 0.034 0.049 0.061 0.060l0.001 0c0.011 0.004 0.025 0.007 0.038 0.007 0.016 0 0.032-0.004 0.045-0.010l-0.001 0c0.026-0.012 0.047-0.033 0.057-0.060l0-0.001c0.005-0.012 0.008-0.026 0.008-0.041 0-0.046-0.028-0.085-0.069-0.101l-0.001-0c-0.012-0.004-0.026-0.007-0.040-0.007v0z"></path>
<path d="M27.682 8.118c0 0.084-0.068 0.152-0.152 0.152s-0.152-0.068-0.152-0.152c0-0.084 0.068-0.152 0.152-0.152s0.152 0.068 0.152 0.152z"></path>
<path d="M27.53 8.314c-0.108-0-0.196-0.088-0.196-0.196s0.088-0.196 0.196-0.196c0.108 0 0.196 0.088 0.196 0.196 0 0.079-0.047 0.147-0.115 0.178l-0.001 0.001c-0.023 0.011-0.051 0.017-0.080 0.017h-0zM27.53 8.008c0 0-0 0-0 0-0.046 0-0.086 0.029-0.101 0.070l-0 0.001c-0.005 0.012-0.008 0.027-0.008 0.041s0.003 0.029 0.009 0.042l-0-0.001c0.012 0.028 0.035 0.049 0.062 0.060l0.001 0c0.011 0.004 0.025 0.007 0.038 0.007 0.016 0 0.032-0.004 0.045-0.010l-0.001 0c0.026-0.012 0.047-0.033 0.057-0.060l0-0.001c0.005-0.011 0.007-0.025 0.007-0.039 0-0.016-0.004-0.032-0.010-0.045l0 0.001c-0.017-0.038-0.055-0.064-0.098-0.064-0 0-0 0-0 0h0z"></path>
<path d="M20.876 12.047c0 0.084-0.068 0.152-0.152 0.152s-0.152-0.068-0.152-0.152c0-0.084 0.068-0.152 0.152-0.152s0.152 0.068 0.152 0.152z"></path>
<path d="M20.723 12.243c-0.108-0-0.196-0.088-0.196-0.196 0-0.025 0.005-0.050 0.014-0.072l-0 0.001c0.029-0.074 0.1-0.126 0.183-0.126 0.108 0 0.196 0.088 0.196 0.196s-0.088 0.196-0.196 0.196c-0 0-0 0-0 0v0zM20.622 12.009c-0.004 0.011-0.007 0.025-0.007 0.038 0 0.060 0.049 0.109 0.109 0.109s0.109-0.049 0.109-0.109c0-0.046-0.029-0.086-0.070-0.101l-0.001-0c-0.011-0.004-0.024-0.007-0.038-0.007-0.046 0-0.086 0.029-0.102 0.069l-0 0.001z"></path>
<path d="M7.264 12.047c0 0.084-0.068 0.152-0.152 0.152s-0.152-0.068-0.152-0.152c0-0.084 0.068-0.152 0.152-0.152s0.152 0.068 0.152 0.152z"></path>
<path d="M7.112 12.243c-0.108-0-0.196-0.088-0.196-0.196 0-0.025 0.005-0.049 0.013-0.071l-0 0.001c0.029-0.075 0.1-0.127 0.183-0.127 0.108 0 0.196 0.088 0.196 0.196 0 0.080-0.048 0.149-0.116 0.179l-0.001 0.001c-0.023 0.011-0.050 0.017-0.079 0.017h-0zM7.010 12.009c-0.004 0.011-0.007 0.025-0.007 0.038 0 0.060 0.049 0.109 0.109 0.109 0.016 0 0.031-0.004 0.045-0.010l-0.001 0c0.026-0.012 0.047-0.033 0.057-0.060l0-0.001c0.005-0.011 0.007-0.025 0.007-0.039 0-0.060-0.049-0.109-0.109-0.109-0.046 0-0.086 0.029-0.101 0.069l-0 0.001z"></path>
<path d="M14.070 23.836c0 0.084-0.068 0.152-0.152 0.152s-0.152-0.068-0.152-0.152c0-0.084 0.068-0.152 0.152-0.152s0.152 0.068 0.152 0.152z"></path>
<path d="M13.918 24.032c-0.108-0-0.196-0.088-0.196-0.196 0-0.025 0.005-0.049 0.013-0.071l-0 0.001c0.029-0.075 0.1-0.127 0.184-0.127 0.108 0 0.196 0.088 0.196 0.196 0 0.080-0.048 0.149-0.116 0.179l-0.001 0c-0.023 0.011-0.050 0.017-0.079 0.017h-0zM13.918 23.727c-0.016 0-0.031 0.004-0.044 0.010l0.001-0c-0.026 0.012-0.047 0.033-0.057 0.060l-0 0.001c-0.005 0.012-0.007 0.025-0.007 0.039 0 0.046 0.029 0.085 0.069 0.101l0.001 0c0.012 0.005 0.025 0.007 0.039 0.007 0.016 0 0.031-0.003 0.045-0.010l-0.001 0c0.026-0.012 0.047-0.034 0.057-0.060l0-0.001c0.005-0.011 0.007-0.025 0.007-0.038 0-0.016-0.004-0.031-0.010-0.045l0 0.001c-0.012-0.026-0.033-0.047-0.060-0.057l-0.001-0c-0.011-0.004-0.023-0.006-0.036-0.006-0.001 0-0.002 0-0.004 0h0z"></path>
<path d="M0.513 8.118c0 0.115-0.093 0.207-0.207 0.207s-0.207-0.093-0.207-0.207c0-0.115 0.093-0.207 0.207-0.207s0.207 0.093 0.207 0.207z"></path>
<path d="M0.306 8.369c-0.139 0-0.251-0.112-0.251-0.251s0.112-0.251 0.251-0.251c0.139 0 0.251 0.112 0.251 0.251v0c-0 0.139-0.112 0.251-0.251 0.251h-0zM0.306 7.954c-0.090 0-0.164 0.073-0.164 0.164s0.073 0.164 0.164 0.164c0.090 0 0.164-0.073 0.164-0.164v0c-0-0.090-0.073-0.163-0.164-0.164h-0z"></path>
<path d="M0.513 23.836c0 0.115-0.093 0.207-0.207 0.207s-0.207-0.093-0.207-0.207c0-0.115 0.093-0.207 0.207-0.207s0.207 0.093 0.207 0.207z"></path>
<path d="M0.306 24.087c-0.139 0-0.251-0.112-0.251-0.251s0.112-0.251 0.251-0.251c0.139 0 0.251 0.112 0.251 0.251v0c-0 0.139-0.112 0.251-0.251 0.251h-0zM0.306 23.672c-0.090 0-0.164 0.073-0.164 0.164s0.073 0.164 0.164 0.164c0.090 0 0.164-0.073 0.164-0.164v0c-0-0.090-0.073-0.163-0.164-0.164h-0z"></path>
<path d="M14.114 31.695c0 0.115-0.093 0.207-0.207 0.207s-0.207-0.093-0.207-0.207c0-0.115 0.093-0.207 0.207-0.207s0.207 0.093 0.207 0.207z"></path>
<path d="M13.907 31.946c-0.139 0-0.251-0.112-0.251-0.251s0.112-0.251 0.251-0.251c0.139 0 0.251 0.112 0.251 0.251v0c-0.001 0.138-0.113 0.251-0.251 0.251h-0zM13.907 31.531c-0.090 0-0.164 0.073-0.164 0.164s0.073 0.164 0.164 0.164c0.090 0 0.164-0.073 0.164-0.164v0c-0-0.090-0.073-0.163-0.164-0.164h-0z"></path>
<path d="M27.737 23.836c0 0.115-0.093 0.207-0.207 0.207s-0.207-0.093-0.207-0.207c0-0.115 0.093-0.207 0.207-0.207s0.207 0.093 0.207 0.207z"></path>
<path d="M27.53 24.087c-0.138-0-0.251-0.113-0.251-0.251s0.112-0.251 0.251-0.251 0.251 0.112 0.251 0.251v0c-0 0.139-0.113 0.251-0.252 0.251 0 0 0 0 0 0v0zM27.53 23.672c-0.090 0-0.163 0.073-0.163 0.164s0.073 0.164 0.164 0.164 0.164-0.073 0.164-0.164v0c-0-0.090-0.074-0.164-0.164-0.164 0 0 0 0 0 0v0z"></path>
<path d="M27.737 8.118c0 0.115-0.093 0.207-0.207 0.207s-0.207-0.093-0.207-0.207c0-0.115 0.093-0.207 0.207-0.207s0.207 0.093 0.207 0.207z"></path>
<path d="M27.53 8.369c-0.138-0-0.251-0.113-0.251-0.251s0.112-0.251 0.251-0.251 0.251 0.112 0.251 0.251v0c-0 0.139-0.113 0.251-0.252 0.251 0 0 0 0 0 0v0zM27.53 7.954c-0.090 0-0.163 0.073-0.163 0.164s0.073 0.164 0.164 0.164 0.164-0.073 0.164-0.164v0c-0-0.090-0.074-0.164-0.164-0.164 0 0 0 0 0 0v0z"></path>
<path d="M20.931 12.047c0 0.115-0.093 0.207-0.207 0.207s-0.207-0.093-0.207-0.207c0-0.115 0.093-0.207 0.207-0.207s0.207 0.093 0.207 0.207z"></path>
<path d="M20.724 12.298c-0.139 0-0.251-0.112-0.251-0.251s0.112-0.251 0.251-0.251c0.139 0 0.251 0.112 0.251 0.251v0c-0 0.139-0.113 0.251-0.251 0.251h-0zM20.724 11.884c-0.090 0-0.164 0.073-0.164 0.164s0.073 0.164 0.164 0.164c0.090 0 0.164-0.073 0.164-0.164v0c0-0.090-0.073-0.164-0.164-0.164v0z"></path>
<path d="M14.125 23.836c0 0.115-0.093 0.207-0.207 0.207s-0.207-0.093-0.207-0.207c0-0.115 0.093-0.207 0.207-0.207s0.207 0.093 0.207 0.207z"></path>
<path d="M13.917 24.087c-0.138-0-0.251-0.113-0.251-0.251s0.112-0.251 0.251-0.251 0.251 0.112 0.251 0.251v0c-0 0.139-0.113 0.251-0.252 0.251 0 0 0 0 0 0v0zM13.917 23.672c-0.090 0-0.163 0.073-0.163 0.164s0.073 0.164 0.164 0.164 0.164-0.073 0.164-0.164v0c-0-0.090-0.074-0.164-0.164-0.164 0 0 0 0 0 0v0z"></path>
<path d="M7.319 12.047c0 0.115-0.093 0.207-0.207 0.207s-0.207-0.093-0.207-0.207c0-0.115 0.093-0.207 0.207-0.207s0.207 0.093 0.207 0.207z"></path>
<path d="M7.112 12.298c-0.139 0-0.251-0.112-0.251-0.251s0.112-0.251 0.251-0.251c0.139 0 0.251 0.112 0.251 0.251v0c-0 0.139-0.112 0.251-0.251 0.251h-0zM7.112 11.884c-0.090 0-0.164 0.073-0.164 0.164s0.073 0.164 0.164 0.164c0.090 0 0.164-0.073 0.164-0.164v0c0-0.090-0.073-0.164-0.164-0.164v0z"></path>
<path d="M20.942 12.047c0 0.121-0.098 0.218-0.218 0.218s-0.218-0.098-0.218-0.218c0-0.121 0.098-0.218 0.218-0.218s0.218 0.098 0.218 0.218z"></path>
<path d="M20.724 12.353c-0.169 0-0.306-0.137-0.306-0.306s0.137-0.306 0.306-0.306c0.169 0 0.306 0.137 0.306 0.306v0c0 0.169-0.137 0.306-0.306 0.306v0zM20.724 11.916c-0.072 0-0.131 0.059-0.131 0.131s0.059 0.131 0.131 0.131c0.072 0 0.131-0.059 0.131-0.131v0c0-0.072-0.059-0.131-0.131-0.131v0z"></path>
<path d="M27.748 8.118c0 0.121-0.098 0.218-0.218 0.218s-0.218-0.098-0.218-0.218c0-0.121 0.098-0.218 0.218-0.218s0.218 0.098 0.218 0.218z"></path>
<path d="M27.53 8.424c-0.169 0-0.306-0.137-0.306-0.306s0.137-0.306 0.306-0.306c0.169 0 0.306 0.137 0.306 0.306v0c0 0.169-0.137 0.306-0.306 0.306v0zM27.53 7.987c-0.072 0-0.131 0.059-0.131 0.131s0.059 0.131 0.131 0.131c0.072 0 0.131-0.059 0.131-0.131v0c0-0.072-0.059-0.131-0.131-0.131v0z"></path>
<path d="M27.748 23.718c0 0.121-0.098 0.218-0.218 0.218s-0.218-0.098-0.218-0.218c0-0.121 0.098-0.218 0.218-0.218s0.218 0.098 0.218 0.218z"></path>
<path d="M27.53 24.024c-0.169 0-0.306-0.137-0.306-0.306s0.137-0.306 0.306-0.306c0.169 0 0.306 0.137 0.306 0.306v0c0 0.169-0.137 0.306-0.306 0.306v0zM27.53 23.587c-0.072 0-0.131 0.059-0.131 0.131s0.059 0.131 0.131 0.131c0.072 0 0.131-0.059 0.131-0.131v0c0-0.072-0.059-0.131-0.131-0.131v0z"></path>
<path d="M14.125 23.865c0 0.121-0.098 0.218-0.218 0.218s-0.218-0.098-0.218-0.218c0-0.121 0.098-0.218 0.218-0.218s0.218 0.098 0.218 0.218z"></path>
<path d="M13.907 24.17c-0.169 0-0.306-0.137-0.306-0.306s0.137-0.306 0.306-0.306c0.169 0 0.306 0.137 0.306 0.306v0c0 0.169-0.137 0.306-0.306 0.306v0zM13.907 23.734c-0.072 0-0.131 0.059-0.131 0.131s0.059 0.131 0.131 0.131c0.072 0 0.131-0.059 0.131-0.131v0c0-0.072-0.059-0.131-0.131-0.131v0z"></path>
<path d="M14.136 31.694c0 0.121-0.098 0.218-0.218 0.218s-0.218-0.098-0.218-0.218c0-0.121 0.098-0.218 0.218-0.218s0.218 0.098 0.218 0.218z"></path>
<path d="M13.917 32c-0.169 0-0.306-0.137-0.306-0.306s0.137-0.306 0.306-0.306c0.169 0 0.306 0.137 0.306 0.306v0c0 0.169-0.137 0.306-0.306 0.306v0zM13.917 31.563c-0.072 0-0.131 0.059-0.131 0.131s0.059 0.131 0.131 0.131c0.072 0 0.131-0.059 0.131-0.131v0c0-0.072-0.059-0.131-0.131-0.131v0z"></path>
<path d="M0.525 23.836c0 0.121-0.098 0.218-0.218 0.218s-0.218-0.098-0.218-0.218c0-0.121 0.098-0.218 0.218-0.218s0.218 0.098 0.218 0.218z"></path>
<path d="M0.306 24.142c-0.169 0-0.306-0.137-0.306-0.306s0.137-0.306 0.306-0.306c0.169 0 0.306 0.137 0.306 0.306v0c0 0.169-0.137 0.306-0.306 0.306v0zM0.306 23.705c-0.072 0-0.131 0.059-0.131 0.131s0.059 0.131 0.131 0.131c0.072 0 0.131-0.059 0.131-0.131v0c0-0.072-0.059-0.131-0.131-0.131v0z"></path>
<path d="M7.33 12.047c0 0.121-0.098 0.218-0.218 0.218s-0.218-0.098-0.218-0.218c0-0.121 0.098-0.218 0.218-0.218s0.218 0.098 0.218 0.218z"></path>
<path d="M7.112 12.353c-0.169 0-0.306-0.137-0.306-0.306s0.137-0.306 0.306-0.306c0.169 0 0.306 0.137 0.306 0.306v0c0 0.169-0.137 0.306-0.306 0.306v0zM7.112 11.916c-0.072 0-0.131 0.059-0.131 0.131s0.059 0.131 0.131 0.131c0.072 0 0.131-0.059 0.131-0.131v0c0-0.072-0.059-0.131-0.131-0.131v0z"></path>
<path d="M0.524 8.118c0 0.121-0.098 0.218-0.218 0.218s-0.218-0.098-0.218-0.218c0-0.121 0.098-0.218 0.218-0.218s0.218 0.098 0.218 0.218z"></path>
<path d="M0.306 8.424c-0.169 0-0.306-0.137-0.306-0.306s0.137-0.306 0.306-0.306c0.169 0 0.306 0.137 0.306 0.306v0c0 0.169-0.137 0.306-0.306 0.306v0zM0.306 7.987c-0.072 0-0.131 0.059-0.131 0.131s0.059 0.131 0.131 0.131c0.072 0 0.131-0.059 0.131-0.131v0c0-0.072-0.059-0.131-0.131-0.131v0z"></path>
<path d="M14.136 0.306c0 0.121-0.098 0.218-0.218 0.218s-0.218-0.098-0.218-0.218c0-0.121 0.098-0.218 0.218-0.218s0.218 0.098 0.218 0.218z"></path>
<path d="M13.918 0.611c-0.169 0-0.306-0.137-0.306-0.306s0.137-0.306 0.306-0.306c0.169 0 0.306 0.137 0.306 0.306v0c0 0.169-0.137 0.306-0.306 0.306v0zM13.918 0.175c-0.072 0-0.131 0.059-0.131 0.131s0.059 0.131 0.131 0.131c0.072 0 0.131-0.059 0.131-0.131v0c0-0.072-0.059-0.131-0.131-0.131v0z"></path>
</svg>
