<!-- Generated by IcoMoon.io -->
<svg version="1.1" xmlns="http://www.w3.org/2000/svg" width="32" height="32" viewBox="0 0 32 32">
<title>icon1</title>
<path d="M16 24.066c-4.448 0-8.066-3.618-8.066-8.066s3.619-8.066 8.066-8.066 8.066 3.619 8.066 8.066-3.618 8.066-8.066 8.066zM16 8.111c-4.35 0-7.889 3.539-7.889 7.889s3.539 7.889 7.889 7.889 7.889-3.539 7.889-7.889-3.539-7.889-7.889-7.889z"></path>
<path d="M16 32c-4.423 0-8.022-3.599-8.022-8.022s3.599-8.022 8.022-8.022 8.022 3.599 8.022 8.022-3.599 8.022-8.022 8.022zM16 16.044c-4.375 0-7.934 3.559-7.934 7.934s3.559 7.934 7.934 7.934 7.934-3.559 7.934-7.934-3.559-7.934-7.934-7.934z"></path>
<path d="M16 16.044c-4.423 0-8.022-3.599-8.022-8.022s3.599-8.022 8.022-8.022 8.022 3.599 8.022 8.022-3.599 8.022-8.022 8.022zM16 0.089c-4.375 0-7.934 3.559-7.934 7.934s3.559 7.934 7.934 7.934 7.934-3.559 7.934-7.934-3.559-7.934-7.934-7.934z"></path>
<path d="M8.022 24.022c-4.423 0-8.022-3.599-8.022-8.022s3.599-8.022 8.022-8.022 8.022 3.599 8.022 8.022-3.599 8.022-8.022 8.022zM8.022 8.066c-4.375 0-7.934 3.559-7.934 7.934s3.559 7.934 7.934 7.934 7.934-3.559 7.934-7.934-3.559-7.934-7.934-7.934z"></path>
<path d="M23.978 24.022c-4.423 0-8.022-3.599-8.022-8.022s3.599-8.022 8.022-8.022 8.022 3.599 8.022 8.022-3.599 8.022-8.022 8.022zM23.978 8.066c-4.375 0-7.934 3.559-7.934 7.934s3.559 7.934 7.934 7.934 7.934-3.559 7.934-7.934-3.559-7.934-7.934-7.934z"></path>
<path d="M10.36 18.381c-4.423 0-8.022-3.599-8.022-8.022s3.599-8.022 8.022-8.022 8.022 3.598 8.022 8.022-3.599 8.022-8.022 8.022zM10.36 2.426c-4.375 0-7.934 3.559-7.934 7.934s3.559 7.934 7.934 7.934 7.934-3.559 7.934-7.934-3.559-7.934-7.934-7.934z"></path>
<path d="M21.65 18.381c-4.424 0-8.022-3.599-8.022-8.022s3.598-8.022 8.022-8.022 8.022 3.598 8.022 8.022-3.599 8.022-8.022 8.022zM21.65 2.426c-4.375 0-7.934 3.559-7.934 7.934s3.559 7.934 7.934 7.934 7.934-3.559 7.934-7.934-3.559-7.934-7.934-7.934z"></path>
<path d="M10.36 29.679c-4.423 0-8.022-3.598-8.022-8.022s3.599-8.022 8.022-8.022 8.022 3.599 8.022 8.022-3.599 8.022-8.022 8.022zM10.36 13.724c-4.375 0-7.934 3.559-7.934 7.934s3.559 7.934 7.934 7.934 7.934-3.559 7.934-7.934-3.559-7.934-7.934-7.934z"></path>
<path d="M21.65 29.679c-4.424 0-8.022-3.598-8.022-8.022s3.598-8.022 8.022-8.022 8.022 3.599 8.022 8.022-3.599 8.022-8.022 8.022zM21.65 13.724c-4.375 0-7.934 3.559-7.934 7.934s3.559 7.934 7.934 7.934 7.934-3.559 7.934-7.934-3.559-7.934-7.934-7.934z"></path>
<path d="M10.514 2.381c0 0.085-0.069 0.155-0.155 0.155s-0.155-0.069-0.155-0.155c0-0.085 0.069-0.155 0.155-0.155s0.155 0.069 0.155 0.155z"></path>
<path d="M10.36 2.58c-0.080-0.001-0.149-0.048-0.181-0.117l-0.001-0.001c-0.011-0.024-0.018-0.052-0.018-0.081 0-0.025 0.005-0.050 0.014-0.072l-0 0.001c0.029-0.076 0.102-0.129 0.186-0.129 0.11 0 0.199 0.089 0.199 0.199 0 0.081-0.049 0.151-0.118 0.182l-0.001 0.001c-0.024 0.011-0.051 0.018-0.080 0.018h-0zM10.257 2.342c-0.005 0.012-0.007 0.025-0.007 0.040 0 0.016 0.004 0.032 0.010 0.046l-0-0.001c0.012 0.027 0.034 0.047 0.061 0.057l0.001 0c0.012 0.005 0.025 0.007 0.039 0.007 0.061 0 0.11-0.049 0.11-0.11s-0.049-0.11-0.11-0.11c-0.047 0-0.087 0.029-0.103 0.070l-0 0.001z"></path>
<path d="M21.804 2.381c0 0.085-0.069 0.155-0.155 0.155s-0.155-0.069-0.155-0.155c0-0.085 0.069-0.155 0.155-0.155s0.155 0.069 0.155 0.155z"></path>
<path d="M21.649 2.58c-0.080-0.001-0.149-0.048-0.181-0.117l-0-0.001c-0.011-0.024-0.017-0.052-0.017-0.081 0-0.025 0.005-0.050 0.013-0.072l-0 0.001c0.029-0.075 0.102-0.128 0.186-0.128 0.080 0 0.15 0.048 0.181 0.116l0 0.001c0.011 0.024 0.018 0.052 0.018 0.081 0 0.025-0.005 0.050-0.014 0.072l0-0.001c-0.029 0.076-0.102 0.128-0.186 0.129v0zM21.649 2.27c-0.016 0-0.031 0.004-0.045 0.010l0.001-0c-0.027 0.012-0.047 0.034-0.058 0.060l-0 0.001c-0.004 0.012-0.007 0.025-0.007 0.039 0 0.017 0.004 0.032 0.010 0.046l-0-0.001c0.012 0.027 0.034 0.047 0.060 0.057l0.001 0c0.012 0.005 0.025 0.007 0.039 0.007 0.047 0 0.087-0.029 0.103-0.070l0-0.001c0.005-0.012 0.008-0.027 0.008-0.042s-0.003-0.030-0.009-0.043l0 0.001c-0.012-0.027-0.034-0.047-0.061-0.058l-0.001-0c-0.011-0.004-0.023-0.006-0.036-0.006-0.002 0-0.004 0-0.005 0h0z"></path>
<path d="M29.782 10.359c0 0.085-0.069 0.155-0.155 0.155s-0.155-0.069-0.155-0.155c0-0.085 0.069-0.155 0.155-0.155s0.155 0.069 0.155 0.155z"></path>
<path d="M29.627 10.558c-0.080-0.001-0.149-0.048-0.181-0.117l-0-0.001c-0.011-0.024-0.017-0.052-0.017-0.081 0-0.025 0.005-0.050 0.013-0.072l-0 0.001c0.029-0.075 0.102-0.128 0.186-0.128 0.080 0 0.15 0.048 0.181 0.116l0 0.001c0.011 0.024 0.018 0.052 0.018 0.081 0 0.025-0.005 0.050-0.014 0.072l0-0.001c-0.029 0.076-0.102 0.128-0.186 0.129v0zM29.627 10.248c-0.016 0-0.031 0.004-0.045 0.010l0.001-0c-0.027 0.012-0.047 0.034-0.058 0.060l-0 0.001c-0.004 0.012-0.007 0.025-0.007 0.039 0 0.017 0.004 0.032 0.010 0.046l-0-0.001c0.012 0.027 0.034 0.047 0.060 0.057l0.001 0c0.012 0.005 0.025 0.007 0.039 0.007 0.047 0 0.087-0.029 0.103-0.070l0-0.001c0.005-0.012 0.008-0.027 0.008-0.042s-0.003-0.030-0.009-0.043l0 0.001c-0.012-0.027-0.034-0.047-0.061-0.058l-0.001-0c-0.011-0.004-0.023-0.006-0.036-0.006-0.002 0-0.004 0-0.005 0h0z"></path>
<path d="M29.782 21.657c0 0.085-0.069 0.155-0.155 0.155s-0.155-0.069-0.155-0.155c0-0.085 0.069-0.155 0.155-0.155s0.155 0.069 0.155 0.155z"></path>
<path d="M29.627 21.856c-0 0-0 0-0 0-0.080 0-0.149-0.048-0.18-0.116l-0-0.001c-0.011-0.024-0.017-0.052-0.017-0.081 0-0.080 0.048-0.15 0.116-0.181l0.001-0c0.023-0.011 0.051-0.017 0.080-0.017 0.11 0 0.199 0.089 0.199 0.199 0 0.025-0.005 0.049-0.013 0.071l0-0.001c-0.029 0.075-0.101 0.128-0.185 0.128h-0zM29.627 21.546c-0.016 0-0.031 0.004-0.045 0.010l0.001-0c-0.027 0.012-0.047 0.034-0.058 0.061l-0 0.001c-0.004 0.012-0.007 0.025-0.007 0.039 0 0.016 0.004 0.032 0.010 0.046l-0-0.001c0.012 0.027 0.034 0.047 0.060 0.058l0.001 0c0.011 0.004 0.025 0.007 0.039 0.007 0.061 0 0.111-0.050 0.111-0.111 0-0.016-0.003-0.032-0.010-0.045l0 0.001c-0.018-0.038-0.056-0.065-0.101-0.065h-0z"></path>
<path d="M21.804 29.635c0 0.085-0.069 0.155-0.155 0.155s-0.155-0.069-0.155-0.155c0-0.085 0.069-0.155 0.155-0.155s0.155 0.069 0.155 0.155z"></path>
<path d="M21.649 29.834c-0 0-0 0-0 0-0.080 0-0.149-0.048-0.18-0.116l-0-0.001c-0.011-0.024-0.017-0.052-0.017-0.081 0-0.080 0.048-0.15 0.116-0.181l0.001-0c0.023-0.011 0.051-0.017 0.080-0.017 0.11 0 0.199 0.089 0.199 0.199 0 0.025-0.005 0.049-0.013 0.071l0-0.001c-0.029 0.075-0.101 0.128-0.185 0.128h-0zM21.649 29.524c-0.016 0-0.031 0.004-0.045 0.010l0.001-0c-0.027 0.012-0.047 0.034-0.058 0.061l-0 0.001c-0.004 0.012-0.007 0.025-0.007 0.039 0 0.016 0.004 0.032 0.010 0.046l-0-0.001c0.012 0.027 0.034 0.047 0.060 0.058l0.001 0c0.011 0.004 0.025 0.007 0.039 0.007 0.061 0 0.111-0.050 0.111-0.111 0-0.016-0.003-0.032-0.010-0.045l0 0.001c-0.018-0.038-0.056-0.065-0.101-0.065h-0z"></path>
<path d="M10.514 29.635c0 0.085-0.069 0.155-0.155 0.155s-0.155-0.069-0.155-0.155c0-0.085 0.069-0.155 0.155-0.155s0.155 0.069 0.155 0.155z"></path>
<path d="M10.36 29.834c-0.11-0-0.199-0.089-0.199-0.199 0-0.025 0.005-0.050 0.013-0.072l-0 0.001c0.031-0.073 0.101-0.123 0.184-0.123 0.11 0 0.199 0.089 0.199 0.199 0 0.023-0.004 0.046-0.011 0.067l0-0.001c-0.019 0.050-0.056 0.089-0.103 0.11l-0.001 0c-0.024 0.011-0.052 0.017-0.082 0.017v0zM10.257 29.596c-0.005 0.012-0.007 0.025-0.007 0.039 0 0.047 0.029 0.087 0.070 0.103l0.001 0c0.012 0.004 0.025 0.007 0.039 0.007 0.016 0 0.032-0.004 0.046-0.010l-0.001 0c0.027-0.012 0.047-0.034 0.058-0.060l0-0.001c0.004-0.012 0.007-0.025 0.007-0.039 0-0.017-0.004-0.032-0.010-0.046l0 0.001c-0.012-0.027-0.034-0.047-0.060-0.057l-0.001-0c-0.012-0.005-0.025-0.007-0.040-0.007-0.047 0-0.087 0.029-0.102 0.071l-0 0.001z"></path>
<path d="M2.537 21.657c0 0.085-0.069 0.155-0.155 0.155s-0.155-0.069-0.155-0.155c0-0.085 0.069-0.155 0.155-0.155s0.155 0.069 0.155 0.155z"></path>
<path d="M2.382 21.856c-0.11-0-0.199-0.089-0.199-0.199 0-0.025 0.005-0.050 0.013-0.072l-0 0.001c0.031-0.073 0.101-0.123 0.184-0.123 0.11 0 0.199 0.089 0.199 0.199 0 0.023-0.004 0.046-0.011 0.067l0-0.001c-0.019 0.050-0.056 0.089-0.103 0.11l-0.001 0c-0.024 0.011-0.052 0.017-0.082 0.017v0zM2.279 21.618c-0.004 0.010-0.006 0.022-0.006 0.035 0 0.061 0.049 0.11 0.11 0.11 0.045 0 0.084-0.027 0.101-0.066l0-0.001c0.004-0.012 0.007-0.025 0.007-0.039 0-0.017-0.004-0.032-0.010-0.046l0 0.001c-0.012-0.027-0.034-0.047-0.060-0.057l-0.001-0c-0.012-0.005-0.025-0.007-0.040-0.007-0.047 0-0.087 0.029-0.102 0.071l-0 0.001z"></path>
<path d="M2.537 10.359c0 0.085-0.069 0.155-0.155 0.155s-0.155-0.069-0.155-0.155c0-0.085 0.069-0.155 0.155-0.155s0.155 0.069 0.155 0.155z"></path>
<path d="M2.382 10.558c-0.080-0.001-0.149-0.048-0.181-0.117l-0.001-0.001c-0.011-0.024-0.018-0.052-0.018-0.081 0-0.025 0.005-0.050 0.014-0.072l-0 0.001c0.029-0.076 0.102-0.129 0.186-0.129 0.11 0 0.199 0.089 0.199 0.199 0 0.081-0.049 0.151-0.118 0.182l-0.001 0.001c-0.024 0.011-0.051 0.018-0.080 0.018h-0zM2.279 10.32c-0.005 0.012-0.007 0.025-0.007 0.040 0 0.016 0.004 0.032 0.010 0.046l-0-0.001c0.012 0.027 0.034 0.047 0.061 0.057l0.001 0c0.012 0.005 0.025 0.007 0.039 0.007 0.061 0 0.11-0.049 0.11-0.11s-0.049-0.11-0.11-0.11c-0.047 0-0.087 0.029-0.103 0.070l-0 0.001z"></path>
<path d="M12.197 9.090c0 0.085-0.069 0.155-0.155 0.155s-0.155-0.069-0.155-0.155c0-0.085 0.069-0.155 0.155-0.155s0.155 0.069 0.155 0.155z"></path>
<path d="M12.043 9.289c-0 0-0 0-0 0-0.025 0-0.050-0.005-0.072-0.013l0.001 0c-0.050-0.019-0.089-0.056-0.11-0.103l-0.001-0.001c-0.011-0.024-0.018-0.052-0.018-0.081 0-0.025 0.005-0.050 0.014-0.072l-0 0.001c0.029-0.076 0.101-0.128 0.186-0.128 0.025 0 0.050 0.005 0.072 0.014l-0.001-0c0.075 0.030 0.127 0.102 0.127 0.186 0 0.11-0.089 0.199-0.198 0.199h-0zM12.043 8.979c-0.047 0-0.087 0.029-0.103 0.070l-0 0.001c-0.004 0.012-0.007 0.025-0.007 0.039 0 0.016 0.004 0.032 0.010 0.046l-0-0.001c0.012 0.027 0.034 0.048 0.061 0.058l0.001 0c0.012 0.005 0.026 0.008 0.040 0.008 0.061 0 0.11-0.049 0.11-0.11s-0.049-0.11-0.11-0.11c-0 0-0.001 0-0.001 0h0z"></path>
<path d="M20.183 9.090c0 0.085-0.069 0.155-0.155 0.155s-0.155-0.069-0.155-0.155c0-0.085 0.069-0.155 0.155-0.155s0.155 0.069 0.155 0.155z"></path>
<path d="M20.029 9.289c-0 0-0 0-0.001 0-0.025 0-0.049-0.005-0.071-0.013l0.001 0c-0.076-0.030-0.128-0.102-0.128-0.186 0-0.025 0.005-0.049 0.013-0.072l-0 0.001c0.029-0.076 0.102-0.129 0.186-0.129 0.11 0 0.199 0.089 0.199 0.199s-0.089 0.199-0.199 0.199c-0 0-0 0-0 0h0zM19.926 9.051c-0.005 0.012-0.007 0.025-0.007 0.039 0 0.061 0.049 0.11 0.11 0.11s0.11-0.049 0.11-0.11c0-0.047-0.029-0.087-0.070-0.103l-0.001-0c-0.012-0.005-0.025-0.007-0.039-0.007-0.047 0-0.087 0.029-0.103 0.070l-0 0.001z"></path>
<path d="M20.142 22.916c0 0.085-0.069 0.155-0.155 0.155s-0.155-0.069-0.155-0.155c0-0.085 0.069-0.155 0.155-0.155s0.155 0.069 0.155 0.155z"></path>
<path d="M19.989 23.115c-0.11-0-0.199-0.089-0.199-0.199 0-0.025 0.005-0.050 0.013-0.072l-0 0.001c0.030-0.075 0.102-0.128 0.186-0.128 0.025 0 0.050 0.005 0.072 0.013l-0.001-0c0.075 0.030 0.128 0.102 0.128 0.186 0 0.11-0.088 0.198-0.198 0.199h-0zM19.886 22.876c-0.005 0.012-0.007 0.025-0.007 0.039 0 0.061 0.049 0.11 0.11 0.11 0.016 0 0.032-0.004 0.046-0.010l-0.001 0c0.039-0.018 0.065-0.056 0.065-0.101 0-0.016-0.003-0.032-0.010-0.045l0 0.001c-0.018-0.039-0.056-0.065-0.101-0.065-0.047 0-0.087 0.029-0.103 0.070l-0 0.001z"></path>
<path d="M12.192 22.916c0 0.085-0.069 0.155-0.155 0.155s-0.155-0.069-0.155-0.155c0-0.085 0.069-0.155 0.155-0.155s0.155 0.069 0.155 0.155z"></path>
<path d="M12.038 23.115c-0.025-0-0.050-0.005-0.072-0.014l0.001 0c-0.076-0.029-0.128-0.101-0.128-0.186 0-0.026 0.005-0.050 0.014-0.072l-0 0.001c0.029-0.076 0.102-0.128 0.186-0.128 0.080 0 0.15 0.048 0.181 0.116l0.001 0.001c0.011 0.024 0.018 0.052 0.018 0.081 0 0.080-0.048 0.15-0.116 0.181l-0.001 0c-0.024 0.011-0.052 0.018-0.081 0.018-0 0-0 0-0 0h0zM12.038 22.805c-0.047 0-0.087 0.029-0.103 0.070l-0 0.001c-0.005 0.012-0.008 0.026-0.008 0.040 0 0.061 0.049 0.11 0.11 0.11 0.017 0 0.032-0.004 0.046-0.010l-0.001 0c0.027-0.012 0.048-0.034 0.058-0.061l0-0.001c0.005-0.012 0.007-0.025 0.007-0.039 0-0.016-0.004-0.032-0.010-0.046l0 0.001c-0.012-0.027-0.034-0.047-0.060-0.058l-0.001-0c-0.011-0.004-0.025-0.006-0.038-0.006-0 0-0.001 0-0.001 0h0z"></path>
<path d="M10.581 2.381c0 0.122-0.099 0.222-0.222 0.222s-0.222-0.099-0.222-0.222c0-0.122 0.099-0.222 0.222-0.222s0.222 0.099 0.222 0.222z"></path>
<path d="M10.36 2.692c-0.171 0-0.31-0.139-0.31-0.31s0.139-0.31 0.31-0.31c0.171 0 0.31 0.139 0.31 0.31v0c0 0.171-0.139 0.31-0.31 0.31v0zM10.36 2.248c-0.073 0-0.133 0.060-0.133 0.133s0.060 0.133 0.133 0.133c0.073 0 0.133-0.060 0.133-0.133v0c0-0.073-0.060-0.133-0.133-0.133v0z"></path>
<path d="M2.603 10.359c0 0.122-0.099 0.222-0.222 0.222s-0.222-0.099-0.222-0.222c0-0.122 0.099-0.222 0.222-0.222s0.222 0.099 0.222 0.222z"></path>
<path d="M2.382 10.669c-0.171 0-0.31-0.139-0.31-0.31s0.139-0.31 0.31-0.31c0.171 0 0.31 0.139 0.31 0.31v0c0 0.171-0.139 0.31-0.31 0.31v0zM2.382 10.226c-0.073 0-0.133 0.060-0.133 0.133s0.060 0.133 0.133 0.133c0.073 0 0.133-0.060 0.133-0.133v0c0-0.073-0.060-0.133-0.133-0.133v0z"></path>
<path d="M2.603 21.657c0 0.122-0.099 0.222-0.222 0.222s-0.222-0.099-0.222-0.222c0-0.122 0.099-0.222 0.222-0.222s0.222 0.099 0.222 0.222z"></path>
<path d="M2.382 21.967c-0.171 0-0.31-0.139-0.31-0.31s0.139-0.31 0.31-0.31c0.171 0 0.31 0.139 0.31 0.31v0c0 0.171-0.139 0.31-0.31 0.31v0zM2.382 21.524c-0.073 0-0.133 0.060-0.133 0.133s0.060 0.133 0.133 0.133c0.073 0 0.133-0.060 0.133-0.133v0c0-0.073-0.060-0.133-0.133-0.133v0z"></path>
<path d="M10.581 29.635c0 0.122-0.099 0.222-0.222 0.222s-0.222-0.099-0.222-0.222c0-0.122 0.099-0.222 0.222-0.222s0.222 0.099 0.222 0.222z"></path>
<path d="M10.36 29.945c-0.171 0-0.31-0.139-0.31-0.31s0.139-0.31 0.31-0.31c0.171 0 0.31 0.139 0.31 0.31v0c0 0.171-0.139 0.31-0.31 0.31v0zM10.36 29.502c-0.073 0-0.133 0.060-0.133 0.133s0.060 0.133 0.133 0.133c0.073 0 0.133-0.060 0.133-0.133v0c0-0.073-0.060-0.133-0.133-0.133v0z"></path>
<path d="M12.259 22.916c0 0.122-0.099 0.222-0.222 0.222s-0.222-0.099-0.222-0.222c0-0.122 0.099-0.222 0.222-0.222s0.222 0.099 0.222 0.222z"></path>
<path d="M12.038 23.224c-0.171 0-0.31-0.139-0.31-0.31s0.139-0.31 0.31-0.31c0.171 0 0.31 0.139 0.31 0.31v0c0 0.171-0.139 0.31-0.31 0.31v0zM12.038 22.781c-0.073 0-0.133 0.060-0.133 0.133s0.060 0.133 0.133 0.133c0.073 0 0.133-0.060 0.133-0.133v0c0-0.073-0.060-0.133-0.133-0.133v0z"></path>
<path d="M20.209 22.916c0 0.122-0.099 0.222-0.222 0.222s-0.222-0.099-0.222-0.222c0-0.122 0.099-0.222 0.222-0.222s0.222 0.099 0.222 0.222z"></path>
<path d="M19.989 23.224c-0.171 0-0.31-0.139-0.31-0.31s0.139-0.31 0.31-0.31c0.171 0 0.31 0.139 0.31 0.31v0c0 0.171-0.139 0.31-0.31 0.31v0zM19.989 22.781c-0.073 0-0.133 0.060-0.133 0.133s0.060 0.133 0.133 0.133c0.073 0 0.133-0.060 0.133-0.133v0c0-0.073-0.060-0.133-0.133-0.133v0z"></path>
<path d="M21.871 29.635c0 0.122-0.099 0.222-0.222 0.222s-0.222-0.099-0.222-0.222c0-0.122 0.099-0.222 0.222-0.222s0.222 0.099 0.222 0.222z"></path>
<path d="M21.65 29.945c-0.171 0-0.31-0.139-0.31-0.31s0.139-0.31 0.31-0.31c0.171 0 0.31 0.139 0.31 0.31v0c0 0.171-0.139 0.31-0.31 0.31v0zM21.65 29.502c-0.073 0-0.133 0.060-0.133 0.133s0.060 0.133 0.133 0.133c0.073 0 0.133-0.060 0.133-0.133v0c0-0.073-0.060-0.133-0.133-0.133v0z"></path>
<path d="M29.849 21.657c0 0.122-0.099 0.222-0.222 0.222s-0.222-0.099-0.222-0.222c0-0.122 0.099-0.222 0.222-0.222s0.222 0.099 0.222 0.222z"></path>
<path d="M29.627 21.967c-0.171 0-0.31-0.139-0.31-0.31s0.139-0.31 0.31-0.31c0.171 0 0.31 0.139 0.31 0.31v0c0 0.171-0.139 0.31-0.31 0.31v0zM29.627 21.524c-0.073 0-0.133 0.060-0.133 0.133s0.060 0.133 0.133 0.133c0.073 0 0.133-0.060 0.133-0.133v0c0-0.073-0.060-0.133-0.133-0.133v0z"></path>
<path d="M29.849 10.359c0 0.122-0.099 0.222-0.222 0.222s-0.222-0.099-0.222-0.222c0-0.122 0.099-0.222 0.222-0.222s0.222 0.099 0.222 0.222z"></path>
<path d="M29.627 10.669c-0.171 0-0.31-0.139-0.31-0.31s0.139-0.31 0.31-0.31c0.171 0 0.31 0.139 0.31 0.31v0c0 0.171-0.139 0.31-0.31 0.31v0zM29.627 10.226c-0.073 0-0.133 0.060-0.133 0.133s0.060 0.133 0.133 0.133c0.073 0 0.133-0.060 0.133-0.133v0c0-0.073-0.060-0.133-0.133-0.133v0z"></path>
<path d="M20.25 9.090c0 0.122-0.099 0.222-0.222 0.222s-0.222-0.099-0.222-0.222c0-0.122 0.099-0.222 0.222-0.222s0.222 0.099 0.222 0.222z"></path>
<path d="M20.029 9.401c-0.171 0-0.31-0.139-0.31-0.31s0.139-0.31 0.31-0.31c0.171 0 0.31 0.139 0.31 0.31v0c0 0.171-0.139 0.31-0.31 0.31v0zM20.029 8.957c-0.073 0-0.133 0.060-0.133 0.133s0.060 0.133 0.133 0.133c0.073 0 0.133-0.060 0.133-0.133v0c0-0.073-0.060-0.133-0.133-0.133v0z"></path>
<path d="M12.264 9.090c0 0.122-0.099 0.222-0.222 0.222s-0.222-0.099-0.222-0.222c0-0.122 0.099-0.222 0.222-0.222s0.222 0.099 0.222 0.222z"></path>
<path d="M12.043 9.401c-0.171 0-0.31-0.139-0.31-0.31s0.139-0.31 0.31-0.31c0.171 0 0.31 0.139 0.31 0.31v0c0 0.171-0.139 0.31-0.31 0.31v0zM12.043 8.957c-0.073 0-0.133 0.060-0.133 0.133s0.060 0.133 0.133 0.133c0.073 0 0.133-0.060 0.133-0.133v0c0-0.073-0.060-0.133-0.133-0.133v0z"></path>
<path d="M21.871 2.381c0 0.122-0.099 0.222-0.222 0.222s-0.222-0.099-0.222-0.222c0-0.122 0.099-0.222 0.222-0.222s0.222 0.099 0.222 0.222z"></path>
<path d="M21.65 2.692c-0.171 0-0.31-0.139-0.31-0.31s0.139-0.31 0.31-0.31c0.171 0 0.31 0.139 0.31 0.31v0c0 0.171-0.139 0.31-0.31 0.31v0zM21.65 2.248c-0.073 0-0.133 0.060-0.133 0.133s0.060 0.133 0.133 0.133c0.073 0 0.133-0.060 0.133-0.133v0c0-0.073-0.060-0.133-0.133-0.133v0z"></path>
</svg>
