<svg aria-hidden="true" style="position: absolute; width: 0; height: 0; overflow: hidden;" version="1.1" xmlns="http://www.w3.org/2000/svg" xmlns:xlink="http://www.w3.org/1999/xlink">
<defs>
<symbol id="icon-icon2" viewBox="0 0 32 32">
<title>icon2</title>
<path d="M27.357 27.357h-22.714v-22.714h22.714zM4.769 27.231h22.463v-22.463h-22.463z"></path>
<path d="M25.212 29.156l-22.369-3.945 3.945-22.369 0.063 0.011 22.306 3.934-0.011 0.063zM2.989 25.11l22.121 3.901 3.901-22.121-22.121-3.901z"></path>
<path d="M22.788 30.557l-21.345-7.769 0.021-0.059 7.748-21.286 0.059 0.021 21.286 7.748zM1.604 22.714l21.109 7.682 7.682-21.109-21.109-7.682z"></path>
<path d="M20.157 31.514l-19.671-11.357 11.357-19.671 19.671 11.357zM0.658 20.111l19.451 11.231 11.231-19.451-19.451-11.231z"></path>
<path d="M17.4 32l-0.048-0.040-17.352-14.56 14.6-17.4 17.4 14.6-0.040 0.048zM0.177 17.384l17.207 14.439 14.439-17.207-17.207-14.439z"></path>
<path d="M14.6 32l-0.040-0.048-14.56-17.352 0.048-0.040 17.352-14.56 0.040 0.048 14.56 17.352-0.048 0.040zM0.177 14.616l14.439 17.207 17.207-14.439-14.439-17.207z"></path>
<path d="M11.843 31.514l-11.357-19.671 19.671-11.357 11.357 19.671zM0.658 11.889l11.231 19.451 19.451-11.231-11.231-19.451z"></path>
<path d="M9.212 30.557l-0.021-0.059-7.748-21.286 0.059-0.021 21.286-7.748 0.021 0.059 7.748 21.286zM1.604 9.286l7.682 21.109 21.109-7.682-7.682-21.109z"></path>
<path d="M6.788 29.156l-0.011-0.063-3.933-22.306 0.063-0.011 22.307-3.933 0.011 0.063 3.933 22.307-0.063 0.011zM2.989 6.889l3.9 22.121 22.121-3.9-3.9-22.121z"></path>
<path d="M22.638 22.638h-13.277v-13.277h13.277zM9.424 22.576h13.151v-13.151h-13.151z"></path>
<path d="M21.385 23.691l-13.075-2.306 2.306-13.075 13.075 2.306zM8.382 21.333l12.951 2.285 2.285-12.951-12.951-2.285z"></path>
<path d="M19.967 24.508l-12.476-4.541 4.541-12.476 12.476 4.541zM7.572 19.928l12.361 4.498 4.498-12.361-12.361-4.498z"></path>
<path d="M18.43 25.069l-0.027-0.016-11.471-6.623 0.016-0.027 6.623-11.471 11.499 6.638zM7.017 18.407l11.389 6.576 6.576-11.389-11.389-6.576z"></path>
<path d="M16.816 25.352l-10.165-8.536 0.020-0.024 8.513-10.141 0.024 0.020 10.144 8.513zM6.736 16.811l10.075 8.454 8.454-10.075-10.075-8.454z"></path>
<path d="M15.184 25.352l-8.533-10.168 0.024-0.020 10.141-8.513 0.020 0.024 8.516 10.141zM6.738 15.187l8.451 10.077 10.075-8.454-8.454-10.075z"></path>
<path d="M13.57 25.069l-0.016-0.028-6.623-11.471 11.498-6.638 6.639 11.498-0.028 0.016zM7.017 13.593l6.576 11.389 11.389-6.576-6.576-11.389z"></path>
<path d="M12.033 24.508l-4.541-12.476 12.476-4.541 4.541 12.476zM7.572 12.070l4.498 12.361 12.361-4.498-4.498-12.361z"></path>
<path d="M10.615 23.69l-0.006-0.031-2.3-13.044 0.031-0.006 13.044-2.3 0.006 0.031 2.3 13.044-0.031 0.006zM8.382 10.667l2.285 12.951 12.951-2.285-2.285-12.951z"></path>
<path d="M18.768 18.768h-5.537v-5.537h5.537zM13.263 18.737h5.474v-5.474h-5.474z"></path>
<path d="M18.246 19.208h-0.016l-5.438-0.959 0.962-5.453 5.453 0.962v0.016zM12.829 18.22l5.391 0.951 0.951-5.392-5.392-0.951z"></path>
<path d="M17.655 19.549l-0.014-0.006-5.189-1.889 0.006-0.014 1.889-5.189 5.203 1.894-0.006 0.014zM12.491 17.636l5.145 1.873 1.873-5.145-5.145-1.873z"></path>
<path d="M17.013 19.782l-0.014-0.008-4.782-2.761 0.008-0.014 2.761-4.782 0.014 0.008 4.782 2.761-0.008 0.014zM12.261 17.004l4.743 2.735 2.735-4.743-4.743-2.735z"></path>
<path d="M16.341 19.901l-0.012-0.011-4.23-3.549 0.010-0.012 3.549-4.23 4.242 3.559-0.011 0.012zM12.144 16.338l4.194 3.519 3.519-4.194-4.194-3.519z"></path>
<path d="M15.659 19.901l-3.559-4.242 4.242-3.559 0.010 0.012 3.549 4.23-0.013 0.010zM12.145 15.662l3.519 4.194 4.194-3.519-3.519-4.194z"></path>
<path d="M14.987 19.782l-0.008-0.014-2.761-4.782 0.014-0.008 4.782-2.761 0.008 0.014 2.761 4.782-0.014 0.008zM12.261 14.996l2.735 4.743 4.743-2.735-2.735-4.743z"></path>
<path d="M14.345 19.549l-0.006-0.015-1.889-5.188 5.203-1.894 0.006 0.015 1.889 5.188-0.015 0.006zM12.491 14.364l1.873 5.145 5.145-1.873-1.873-5.145z"></path>
<path d="M13.754 19.208l-0.003-0.016-0.959-5.438 5.453-0.962 0.003 0.016 0.959 5.438-0.016 0.003zM12.829 13.779l0.951 5.392 5.392-0.951-0.951-5.392z"></path>
</symbol>
<symbol id="icon-icon3" viewBox="0 0 28 32">
<title>icon3</title>
<path d="M14.125 0.306c0 0.115-0.093 0.207-0.207 0.207s-0.207-0.093-0.207-0.207c0-0.115 0.093-0.207 0.207-0.207s0.207 0.093 0.207 0.207z"></path>
<path d="M13.917 0.557c-0.138-0-0.251-0.113-0.251-0.251s0.112-0.251 0.251-0.251 0.251 0.112 0.251 0.251v0c-0 0.139-0.113 0.251-0.252 0.251 0 0 0 0 0 0v0zM13.917 0.142c-0.090 0-0.163 0.073-0.163 0.164s0.073 0.164 0.164 0.164 0.164-0.073 0.164-0.164v0c-0.001-0.090-0.074-0.162-0.164-0.162 0 0 0 0-0 0v0z"></path>
<path d="M14.070 31.695c0 0.084-0.068 0.152-0.152 0.152s-0.152-0.068-0.152-0.152c0-0.084 0.068-0.152 0.152-0.152s0.152 0.068 0.152 0.152z"></path>
<path d="M13.917 31.891c-0.108-0-0.196-0.088-0.196-0.196 0-0.025 0.005-0.049 0.013-0.071l-0 0.001c0.019-0.049 0.056-0.087 0.102-0.108l0.001-0c0.023-0.011 0.051-0.017 0.080-0.017 0.025 0 0.049 0.005 0.071 0.014l-0.001-0c0.074 0.029 0.126 0.1 0.126 0.183 0 0.108-0.087 0.196-0.195 0.196h-0zM13.917 31.585c-0.016 0-0.031 0.004-0.044 0.010l0.001-0c-0.026 0.012-0.047 0.033-0.057 0.060l-0 0.001c-0.005 0.012-0.008 0.026-0.008 0.041s0.003 0.029 0.009 0.042l-0-0.001c0.012 0.026 0.034 0.046 0.060 0.057l0.001 0c0.011 0.005 0.025 0.007 0.039 0.007 0.060 0 0.109-0.049 0.109-0.109 0-0.046-0.029-0.086-0.069-0.101l-0.001-0c-0.011-0.004-0.024-0.006-0.037-0.006h-0z"></path>
<path d="M13.917 31.796l-0.044-0.025-13.655-7.884v-15.818l0.044-0.025 13.655-7.884 0.044 0.025 13.656 7.884v15.818l-0.044 0.025zM0.393 23.786l13.524 7.808 13.525-7.808v-15.617l-13.525-7.809-13.524 7.809z"></path>
<path d="M27.606 23.88h-27.375l0.038-0.066 13.65-23.642 0.038 0.066zM0.381 23.792h27.073l-13.535-23.446z"></path>
<path d="M13.917 23.923l-6.881-11.919h13.763zM7.187 12.091l6.73 11.657 6.731-11.657z"></path>
<path d="M0.284 8.156l0.044-0.076 6.806 3.929-0.044 0.076-6.806-3.929z"></path>
<path d="M20.702 12.012l6.807-3.928 0.044 0.076-6.807 3.928-0.044-0.076z"></path>
<path d="M13.874 23.836h0.087v7.859h-0.087v-7.859z"></path>
<path d="M0.458 8.118c0 0.084-0.068 0.152-0.152 0.152s-0.152-0.068-0.152-0.152c0-0.084 0.068-0.152 0.152-0.152s0.152 0.068 0.152 0.152z"></path>
<path d="M0.306 8.314c-0 0-0 0-0 0-0.108 0-0.196-0.088-0.196-0.196 0-0.025 0.005-0.049 0.013-0.071l-0 0.001c0.019-0.049 0.056-0.087 0.102-0.108l0.001-0c0.023-0.011 0.051-0.018 0.080-0.018 0.025 0 0.049 0.005 0.071 0.014l-0.001-0c0.075 0.029 0.126 0.1 0.126 0.183 0 0.025-0.005 0.049-0.013 0.071l0-0.001c-0.029 0.074-0.1 0.126-0.183 0.126-0 0-0 0-0 0v0zM0.306 8.008c-0.016 0-0.031 0.004-0.044 0.010l0.001-0c-0.026 0.012-0.047 0.033-0.057 0.060l-0 0.001c-0.005 0.011-0.007 0.025-0.007 0.038 0 0.016 0.004 0.031 0.010 0.045l-0-0.001c0.017 0.038 0.055 0.064 0.099 0.064 0.016 0 0.031-0.004 0.045-0.010l-0.001 0c0.038-0.017 0.064-0.055 0.064-0.099 0-0.016-0.003-0.031-0.010-0.045l0 0.001c-0.012-0.026-0.034-0.046-0.060-0.057l-0.001-0c-0.011-0.004-0.024-0.006-0.038-0.006-0.001 0-0.001 0-0.002 0h0z"></path>
<path d="M0.458 23.836c0 0.084-0.068 0.152-0.152 0.152s-0.152-0.068-0.152-0.152c0-0.084 0.068-0.152 0.152-0.152s0.152 0.068 0.152 0.152z"></path>
<path d="M0.306 24.032c-0 0-0 0-0 0-0.108 0-0.196-0.088-0.196-0.196 0-0.025 0.005-0.049 0.013-0.071l-0 0.001c0.019-0.049 0.056-0.087 0.102-0.108l0.001-0c0.023-0.011 0.051-0.017 0.080-0.017 0.025 0 0.049 0.005 0.071 0.014l-0.001-0c0.075 0.029 0.126 0.1 0.126 0.183 0 0.025-0.005 0.049-0.013 0.071l0-0.001c-0.019 0.049-0.055 0.087-0.102 0.108l-0.001 0c-0.023 0.011-0.051 0.017-0.080 0.017-0 0-0 0-0 0h0zM0.306 23.726c-0.016 0-0.031 0.004-0.044 0.010l0.001-0c-0.026 0.012-0.047 0.033-0.057 0.060l-0 0.001c-0.005 0.011-0.007 0.025-0.007 0.038 0 0.016 0.004 0.031 0.010 0.045l-0-0.001c0.017 0.038 0.055 0.064 0.099 0.064 0.016 0 0.031-0.004 0.045-0.010l-0.001 0c0.026-0.012 0.047-0.033 0.057-0.060l0-0.001c0.005-0.012 0.007-0.025 0.007-0.039 0-0.046-0.029-0.086-0.069-0.102l-0.001-0c-0.011-0.004-0.024-0.006-0.038-0.006-0.001 0-0.001 0-0.002 0h0z"></path>
<path d="M27.682 23.836c0 0.084-0.068 0.152-0.152 0.152s-0.152-0.068-0.152-0.152c0-0.084 0.068-0.152 0.152-0.152s0.152 0.068 0.152 0.152z"></path>
<path d="M27.53 24.032c-0 0-0.001 0-0.002 0-0.108 0-0.196-0.088-0.196-0.196 0-0.079 0.047-0.148 0.116-0.179l0.001-0c0.023-0.011 0.051-0.017 0.080-0.017 0.025 0 0.049 0.005 0.071 0.014l-0.001-0c0.074 0.029 0.126 0.1 0.126 0.183 0 0.025-0.005 0.049-0.013 0.071l0-0.001c-0.019 0.049-0.055 0.087-0.102 0.108l-0.001 0c-0.023 0.011-0.051 0.017-0.080 0.017-0 0-0 0-0 0v0zM27.53 23.726c-0.016 0-0.031 0.004-0.044 0.010l0.001-0c-0.026 0.012-0.047 0.033-0.057 0.060l-0 0.001c-0.005 0.012-0.008 0.026-0.008 0.041s0.003 0.029 0.009 0.042l-0-0.001c0.012 0.027 0.034 0.049 0.061 0.060l0.001 0c0.011 0.004 0.025 0.007 0.038 0.007 0.016 0 0.032-0.004 0.045-0.010l-0.001 0c0.026-0.012 0.047-0.033 0.057-0.060l0-0.001c0.005-0.012 0.008-0.026 0.008-0.041 0-0.046-0.028-0.085-0.069-0.101l-0.001-0c-0.012-0.004-0.026-0.007-0.040-0.007v0z"></path>
<path d="M27.682 8.118c0 0.084-0.068 0.152-0.152 0.152s-0.152-0.068-0.152-0.152c0-0.084 0.068-0.152 0.152-0.152s0.152 0.068 0.152 0.152z"></path>
<path d="M27.53 8.314c-0.108-0-0.196-0.088-0.196-0.196s0.088-0.196 0.196-0.196c0.108 0 0.196 0.088 0.196 0.196 0 0.079-0.047 0.147-0.115 0.178l-0.001 0.001c-0.023 0.011-0.051 0.017-0.080 0.017h-0zM27.53 8.008c0 0-0 0-0 0-0.046 0-0.086 0.029-0.101 0.070l-0 0.001c-0.005 0.012-0.008 0.027-0.008 0.041s0.003 0.029 0.009 0.042l-0-0.001c0.012 0.028 0.035 0.049 0.062 0.060l0.001 0c0.011 0.004 0.025 0.007 0.038 0.007 0.016 0 0.032-0.004 0.045-0.010l-0.001 0c0.026-0.012 0.047-0.033 0.057-0.060l0-0.001c0.005-0.011 0.007-0.025 0.007-0.039 0-0.016-0.004-0.032-0.010-0.045l0 0.001c-0.017-0.038-0.055-0.064-0.098-0.064-0 0-0 0-0 0h0z"></path>
<path d="M20.876 12.047c0 0.084-0.068 0.152-0.152 0.152s-0.152-0.068-0.152-0.152c0-0.084 0.068-0.152 0.152-0.152s0.152 0.068 0.152 0.152z"></path>
<path d="M20.723 12.243c-0.108-0-0.196-0.088-0.196-0.196 0-0.025 0.005-0.050 0.014-0.072l-0 0.001c0.029-0.074 0.1-0.126 0.183-0.126 0.108 0 0.196 0.088 0.196 0.196s-0.088 0.196-0.196 0.196c-0 0-0 0-0 0v0zM20.622 12.009c-0.004 0.011-0.007 0.025-0.007 0.038 0 0.060 0.049 0.109 0.109 0.109s0.109-0.049 0.109-0.109c0-0.046-0.029-0.086-0.070-0.101l-0.001-0c-0.011-0.004-0.024-0.007-0.038-0.007-0.046 0-0.086 0.029-0.102 0.069l-0 0.001z"></path>
<path d="M7.264 12.047c0 0.084-0.068 0.152-0.152 0.152s-0.152-0.068-0.152-0.152c0-0.084 0.068-0.152 0.152-0.152s0.152 0.068 0.152 0.152z"></path>
<path d="M7.112 12.243c-0.108-0-0.196-0.088-0.196-0.196 0-0.025 0.005-0.049 0.013-0.071l-0 0.001c0.029-0.075 0.1-0.127 0.183-0.127 0.108 0 0.196 0.088 0.196 0.196 0 0.080-0.048 0.149-0.116 0.179l-0.001 0.001c-0.023 0.011-0.050 0.017-0.079 0.017h-0zM7.010 12.009c-0.004 0.011-0.007 0.025-0.007 0.038 0 0.060 0.049 0.109 0.109 0.109 0.016 0 0.031-0.004 0.045-0.010l-0.001 0c0.026-0.012 0.047-0.033 0.057-0.060l0-0.001c0.005-0.011 0.007-0.025 0.007-0.039 0-0.060-0.049-0.109-0.109-0.109-0.046 0-0.086 0.029-0.101 0.069l-0 0.001z"></path>
<path d="M14.070 23.836c0 0.084-0.068 0.152-0.152 0.152s-0.152-0.068-0.152-0.152c0-0.084 0.068-0.152 0.152-0.152s0.152 0.068 0.152 0.152z"></path>
<path d="M13.918 24.032c-0.108-0-0.196-0.088-0.196-0.196 0-0.025 0.005-0.049 0.013-0.071l-0 0.001c0.029-0.075 0.1-0.127 0.184-0.127 0.108 0 0.196 0.088 0.196 0.196 0 0.080-0.048 0.149-0.116 0.179l-0.001 0c-0.023 0.011-0.050 0.017-0.079 0.017h-0zM13.918 23.727c-0.016 0-0.031 0.004-0.044 0.010l0.001-0c-0.026 0.012-0.047 0.033-0.057 0.060l-0 0.001c-0.005 0.012-0.007 0.025-0.007 0.039 0 0.046 0.029 0.085 0.069 0.101l0.001 0c0.012 0.005 0.025 0.007 0.039 0.007 0.016 0 0.031-0.003 0.045-0.010l-0.001 0c0.026-0.012 0.047-0.034 0.057-0.060l0-0.001c0.005-0.011 0.007-0.025 0.007-0.038 0-0.016-0.004-0.031-0.010-0.045l0 0.001c-0.012-0.026-0.033-0.047-0.060-0.057l-0.001-0c-0.011-0.004-0.023-0.006-0.036-0.006-0.001 0-0.002 0-0.004 0h0z"></path>
<path d="M0.513 8.118c0 0.115-0.093 0.207-0.207 0.207s-0.207-0.093-0.207-0.207c0-0.115 0.093-0.207 0.207-0.207s0.207 0.093 0.207 0.207z"></path>
<path d="M0.306 8.369c-0.139 0-0.251-0.112-0.251-0.251s0.112-0.251 0.251-0.251c0.139 0 0.251 0.112 0.251 0.251v0c-0 0.139-0.112 0.251-0.251 0.251h-0zM0.306 7.954c-0.090 0-0.164 0.073-0.164 0.164s0.073 0.164 0.164 0.164c0.090 0 0.164-0.073 0.164-0.164v0c-0-0.090-0.073-0.163-0.164-0.164h-0z"></path>
<path d="M0.513 23.836c0 0.115-0.093 0.207-0.207 0.207s-0.207-0.093-0.207-0.207c0-0.115 0.093-0.207 0.207-0.207s0.207 0.093 0.207 0.207z"></path>
<path d="M0.306 24.087c-0.139 0-0.251-0.112-0.251-0.251s0.112-0.251 0.251-0.251c0.139 0 0.251 0.112 0.251 0.251v0c-0 0.139-0.112 0.251-0.251 0.251h-0zM0.306 23.672c-0.090 0-0.164 0.073-0.164 0.164s0.073 0.164 0.164 0.164c0.090 0 0.164-0.073 0.164-0.164v0c-0-0.090-0.073-0.163-0.164-0.164h-0z"></path>
<path d="M14.114 31.695c0 0.115-0.093 0.207-0.207 0.207s-0.207-0.093-0.207-0.207c0-0.115 0.093-0.207 0.207-0.207s0.207 0.093 0.207 0.207z"></path>
<path d="M13.907 31.946c-0.139 0-0.251-0.112-0.251-0.251s0.112-0.251 0.251-0.251c0.139 0 0.251 0.112 0.251 0.251v0c-0.001 0.138-0.113 0.251-0.251 0.251h-0zM13.907 31.531c-0.090 0-0.164 0.073-0.164 0.164s0.073 0.164 0.164 0.164c0.090 0 0.164-0.073 0.164-0.164v0c-0-0.090-0.073-0.163-0.164-0.164h-0z"></path>
<path d="M27.737 23.836c0 0.115-0.093 0.207-0.207 0.207s-0.207-0.093-0.207-0.207c0-0.115 0.093-0.207 0.207-0.207s0.207 0.093 0.207 0.207z"></path>
<path d="M27.53 24.087c-0.138-0-0.251-0.113-0.251-0.251s0.112-0.251 0.251-0.251 0.251 0.112 0.251 0.251v0c-0 0.139-0.113 0.251-0.252 0.251 0 0 0 0 0 0v0zM27.53 23.672c-0.090 0-0.163 0.073-0.163 0.164s0.073 0.164 0.164 0.164 0.164-0.073 0.164-0.164v0c-0-0.090-0.074-0.164-0.164-0.164 0 0 0 0 0 0v0z"></path>
<path d="M27.737 8.118c0 0.115-0.093 0.207-0.207 0.207s-0.207-0.093-0.207-0.207c0-0.115 0.093-0.207 0.207-0.207s0.207 0.093 0.207 0.207z"></path>
<path d="M27.53 8.369c-0.138-0-0.251-0.113-0.251-0.251s0.112-0.251 0.251-0.251 0.251 0.112 0.251 0.251v0c-0 0.139-0.113 0.251-0.252 0.251 0 0 0 0 0 0v0zM27.53 7.954c-0.090 0-0.163 0.073-0.163 0.164s0.073 0.164 0.164 0.164 0.164-0.073 0.164-0.164v0c-0-0.090-0.074-0.164-0.164-0.164 0 0 0 0 0 0v0z"></path>
<path d="M20.931 12.047c0 0.115-0.093 0.207-0.207 0.207s-0.207-0.093-0.207-0.207c0-0.115 0.093-0.207 0.207-0.207s0.207 0.093 0.207 0.207z"></path>
<path d="M20.724 12.298c-0.139 0-0.251-0.112-0.251-0.251s0.112-0.251 0.251-0.251c0.139 0 0.251 0.112 0.251 0.251v0c-0 0.139-0.113 0.251-0.251 0.251h-0zM20.724 11.884c-0.090 0-0.164 0.073-0.164 0.164s0.073 0.164 0.164 0.164c0.090 0 0.164-0.073 0.164-0.164v0c0-0.090-0.073-0.164-0.164-0.164v0z"></path>
<path d="M14.125 23.836c0 0.115-0.093 0.207-0.207 0.207s-0.207-0.093-0.207-0.207c0-0.115 0.093-0.207 0.207-0.207s0.207 0.093 0.207 0.207z"></path>
<path d="M13.917 24.087c-0.138-0-0.251-0.113-0.251-0.251s0.112-0.251 0.251-0.251 0.251 0.112 0.251 0.251v0c-0 0.139-0.113 0.251-0.252 0.251 0 0 0 0 0 0v0zM13.917 23.672c-0.090 0-0.163 0.073-0.163 0.164s0.073 0.164 0.164 0.164 0.164-0.073 0.164-0.164v0c-0-0.090-0.074-0.164-0.164-0.164 0 0 0 0 0 0v0z"></path>
<path d="M7.319 12.047c0 0.115-0.093 0.207-0.207 0.207s-0.207-0.093-0.207-0.207c0-0.115 0.093-0.207 0.207-0.207s0.207 0.093 0.207 0.207z"></path>
<path d="M7.112 12.298c-0.139 0-0.251-0.112-0.251-0.251s0.112-0.251 0.251-0.251c0.139 0 0.251 0.112 0.251 0.251v0c-0 0.139-0.112 0.251-0.251 0.251h-0zM7.112 11.884c-0.090 0-0.164 0.073-0.164 0.164s0.073 0.164 0.164 0.164c0.090 0 0.164-0.073 0.164-0.164v0c0-0.090-0.073-0.164-0.164-0.164v0z"></path>
<path d="M20.942 12.047c0 0.121-0.098 0.218-0.218 0.218s-0.218-0.098-0.218-0.218c0-0.121 0.098-0.218 0.218-0.218s0.218 0.098 0.218 0.218z"></path>
<path d="M20.724 12.353c-0.169 0-0.306-0.137-0.306-0.306s0.137-0.306 0.306-0.306c0.169 0 0.306 0.137 0.306 0.306v0c0 0.169-0.137 0.306-0.306 0.306v0zM20.724 11.916c-0.072 0-0.131 0.059-0.131 0.131s0.059 0.131 0.131 0.131c0.072 0 0.131-0.059 0.131-0.131v0c0-0.072-0.059-0.131-0.131-0.131v0z"></path>
<path d="M27.748 8.118c0 0.121-0.098 0.218-0.218 0.218s-0.218-0.098-0.218-0.218c0-0.121 0.098-0.218 0.218-0.218s0.218 0.098 0.218 0.218z"></path>
<path d="M27.53 8.424c-0.169 0-0.306-0.137-0.306-0.306s0.137-0.306 0.306-0.306c0.169 0 0.306 0.137 0.306 0.306v0c0 0.169-0.137 0.306-0.306 0.306v0zM27.53 7.987c-0.072 0-0.131 0.059-0.131 0.131s0.059 0.131 0.131 0.131c0.072 0 0.131-0.059 0.131-0.131v0c0-0.072-0.059-0.131-0.131-0.131v0z"></path>
<path d="M27.748 23.718c0 0.121-0.098 0.218-0.218 0.218s-0.218-0.098-0.218-0.218c0-0.121 0.098-0.218 0.218-0.218s0.218 0.098 0.218 0.218z"></path>
<path d="M27.53 24.024c-0.169 0-0.306-0.137-0.306-0.306s0.137-0.306 0.306-0.306c0.169 0 0.306 0.137 0.306 0.306v0c0 0.169-0.137 0.306-0.306 0.306v0zM27.53 23.587c-0.072 0-0.131 0.059-0.131 0.131s0.059 0.131 0.131 0.131c0.072 0 0.131-0.059 0.131-0.131v0c0-0.072-0.059-0.131-0.131-0.131v0z"></path>
<path d="M14.125 23.865c0 0.121-0.098 0.218-0.218 0.218s-0.218-0.098-0.218-0.218c0-0.121 0.098-0.218 0.218-0.218s0.218 0.098 0.218 0.218z"></path>
<path d="M13.907 24.17c-0.169 0-0.306-0.137-0.306-0.306s0.137-0.306 0.306-0.306c0.169 0 0.306 0.137 0.306 0.306v0c0 0.169-0.137 0.306-0.306 0.306v0zM13.907 23.734c-0.072 0-0.131 0.059-0.131 0.131s0.059 0.131 0.131 0.131c0.072 0 0.131-0.059 0.131-0.131v0c0-0.072-0.059-0.131-0.131-0.131v0z"></path>
<path d="M14.136 31.694c0 0.121-0.098 0.218-0.218 0.218s-0.218-0.098-0.218-0.218c0-0.121 0.098-0.218 0.218-0.218s0.218 0.098 0.218 0.218z"></path>
<path d="M13.917 32c-0.169 0-0.306-0.137-0.306-0.306s0.137-0.306 0.306-0.306c0.169 0 0.306 0.137 0.306 0.306v0c0 0.169-0.137 0.306-0.306 0.306v0zM13.917 31.563c-0.072 0-0.131 0.059-0.131 0.131s0.059 0.131 0.131 0.131c0.072 0 0.131-0.059 0.131-0.131v0c0-0.072-0.059-0.131-0.131-0.131v0z"></path>
<path d="M0.525 23.836c0 0.121-0.098 0.218-0.218 0.218s-0.218-0.098-0.218-0.218c0-0.121 0.098-0.218 0.218-0.218s0.218 0.098 0.218 0.218z"></path>
<path d="M0.306 24.142c-0.169 0-0.306-0.137-0.306-0.306s0.137-0.306 0.306-0.306c0.169 0 0.306 0.137 0.306 0.306v0c0 0.169-0.137 0.306-0.306 0.306v0zM0.306 23.705c-0.072 0-0.131 0.059-0.131 0.131s0.059 0.131 0.131 0.131c0.072 0 0.131-0.059 0.131-0.131v0c0-0.072-0.059-0.131-0.131-0.131v0z"></path>
<path d="M7.33 12.047c0 0.121-0.098 0.218-0.218 0.218s-0.218-0.098-0.218-0.218c0-0.121 0.098-0.218 0.218-0.218s0.218 0.098 0.218 0.218z"></path>
<path d="M7.112 12.353c-0.169 0-0.306-0.137-0.306-0.306s0.137-0.306 0.306-0.306c0.169 0 0.306 0.137 0.306 0.306v0c0 0.169-0.137 0.306-0.306 0.306v0zM7.112 11.916c-0.072 0-0.131 0.059-0.131 0.131s0.059 0.131 0.131 0.131c0.072 0 0.131-0.059 0.131-0.131v0c0-0.072-0.059-0.131-0.131-0.131v0z"></path>
<path d="M0.524 8.118c0 0.121-0.098 0.218-0.218 0.218s-0.218-0.098-0.218-0.218c0-0.121 0.098-0.218 0.218-0.218s0.218 0.098 0.218 0.218z"></path>
<path d="M0.306 8.424c-0.169 0-0.306-0.137-0.306-0.306s0.137-0.306 0.306-0.306c0.169 0 0.306 0.137 0.306 0.306v0c0 0.169-0.137 0.306-0.306 0.306v0zM0.306 7.987c-0.072 0-0.131 0.059-0.131 0.131s0.059 0.131 0.131 0.131c0.072 0 0.131-0.059 0.131-0.131v0c0-0.072-0.059-0.131-0.131-0.131v0z"></path>
<path d="M14.136 0.306c0 0.121-0.098 0.218-0.218 0.218s-0.218-0.098-0.218-0.218c0-0.121 0.098-0.218 0.218-0.218s0.218 0.098 0.218 0.218z"></path>
<path d="M13.918 0.611c-0.169 0-0.306-0.137-0.306-0.306s0.137-0.306 0.306-0.306c0.169 0 0.306 0.137 0.306 0.306v0c0 0.169-0.137 0.306-0.306 0.306v0zM13.918 0.175c-0.072 0-0.131 0.059-0.131 0.131s0.059 0.131 0.131 0.131c0.072 0 0.131-0.059 0.131-0.131v0c0-0.072-0.059-0.131-0.131-0.131v0z"></path>
</symbol>
<symbol id="icon-icon4" viewBox="0 0 35 32">
<title>icon4</title>
<path d="M22.613 18.274h-19.546l0.049-0.084 9.725-16.844zM3.26 18.163h19.159l-9.579-16.592z"></path>
<path d="M31.767 18.274h-19.546l0.049-0.084 9.725-16.844zM12.415 18.163h19.159l-9.579-16.592z"></path>
<path d="M35.028 30.335h-35.028l0.048-0.084 17.466-30.251 0.048 0.084zM0.193 30.223h34.639l-17.318-30z"></path>
<path d="M27.287 32h-19.546l0.049-0.084 9.725-16.844zM7.934 31.888h19.162l-9.582-16.592z"></path>
<path d="M8.583 15.263l0.092-0.063 10.305 15.084-0.092 0.063-10.305-15.084z"></path>
<path d="M17.289 30.284l8.805-15.256 0.097 0.056-8.805 15.256-0.097-0.056z"></path>
<path d="M17.603 9.408c0 0.095-0.077 0.171-0.172 0.171s-0.172-0.077-0.172-0.171c0-0.095 0.077-0.171 0.172-0.171s0.172 0.077 0.172 0.171z"></path>
<path d="M17.432 9.635c-0 0-0 0-0.001 0-0.126 0-0.227-0.102-0.227-0.227s0.102-0.227 0.227-0.227c0.126 0 0.227 0.102 0.227 0.227 0 0 0 0 0 0.001v-0c-0 0.125-0.102 0.226-0.227 0.227h-0zM17.432 9.293c-0 0-0 0-0.001 0-0.064 0-0.116 0.052-0.116 0.116s0.052 0.116 0.116 0.116c0.064 0 0.116-0.052 0.116-0.116v0c0-0 0-0 0-0.001 0-0.064-0.052-0.115-0.115-0.115 0 0 0 0 0 0v0z"></path>
<path d="M14.888 4.679c0 0.095-0.077 0.171-0.171 0.171s-0.171-0.077-0.171-0.171c0-0.095 0.077-0.171 0.171-0.171s0.171 0.077 0.171 0.171z"></path>
<path d="M14.716 4.906c-0.125-0.001-0.226-0.102-0.226-0.227s0.102-0.227 0.227-0.227 0.227 0.102 0.227 0.227v0c0 0 0 0 0 0 0 0.126-0.102 0.227-0.227 0.227-0 0-0.001 0-0.001 0h0zM14.716 4.564c-0.063 0.001-0.115 0.052-0.115 0.116s0.052 0.116 0.116 0.116 0.116-0.052 0.116-0.116c0-0 0-0 0-0.001v0c0 0 0 0 0 0 0-0.064-0.052-0.115-0.115-0.115-0.001 0-0.001 0-0.002 0h0z"></path>
<path d="M20.309 4.679c0 0.095-0.077 0.171-0.172 0.171s-0.172-0.077-0.172-0.171c0-0.095 0.077-0.171 0.172-0.171s0.172 0.077 0.172 0.171z"></path>
<path d="M20.14 4.906c-0.001 0-0.003 0-0.004 0-0.126 0-0.227-0.102-0.227-0.227s0.102-0.227 0.227-0.227c0.126 0 0.227 0.102 0.227 0.227v0c0 0 0 0 0 0 0 0.124-0.1 0.225-0.223 0.227h-0zM20.14 4.564c-0.001-0-0.003-0-0.004-0-0.064 0-0.116 0.052-0.116 0.116s0.052 0.116 0.116 0.116c0.064 0 0.116-0.052 0.116-0.116 0-0 0-0 0-0.001v0c-0-0.062-0.050-0.113-0.112-0.115h-0z"></path>
<path d="M8.865 15.326c0 0.095-0.077 0.171-0.171 0.171s-0.171-0.077-0.171-0.171c0-0.095 0.077-0.171 0.171-0.171s0.171 0.077 0.171 0.171z"></path>
<path d="M8.693 15.553c-0.126 0-0.227-0.102-0.227-0.227s0.102-0.227 0.227-0.227c0.126 0 0.227 0.102 0.227 0.227v0c0 0.126-0.102 0.227-0.227 0.227v0zM8.693 15.21c-0.064 0-0.116 0.052-0.116 0.116s0.052 0.116 0.116 0.116c0.064 0 0.116-0.052 0.116-0.116v0c0-0.064-0.052-0.116-0.116-0.116v0z"></path>
<path d="M10.841 18.218c0 0.095-0.077 0.172-0.171 0.172s-0.171-0.077-0.171-0.172c0-0.095 0.077-0.172 0.171-0.172s0.171 0.077 0.171 0.172z"></path>
<path d="M10.669 18.446c-0.126 0-0.227-0.102-0.227-0.227s0.102-0.227 0.227-0.227c0.126 0 0.227 0.102 0.227 0.227v0c-0 0.125-0.102 0.227-0.227 0.227h-0zM10.669 18.103c-0.064 0-0.116 0.052-0.116 0.116s0.052 0.116 0.116 0.116c0.064 0 0.116-0.052 0.116-0.116v0c0-0.064-0.052-0.116-0.116-0.116v0z"></path>
<path d="M26.318 15.141c0 0.095-0.077 0.171-0.172 0.171s-0.172-0.077-0.172-0.171c0-0.095 0.077-0.171 0.172-0.171s0.172 0.077 0.172 0.171z"></path>
<path d="M26.146 15.368c-0.126 0-0.227-0.102-0.227-0.227s0.102-0.227 0.227-0.227c0.126 0 0.227 0.102 0.227 0.227v0c0 0.126-0.102 0.227-0.227 0.227v0zM26.146 15.025c-0.064 0-0.116 0.052-0.116 0.116s0.052 0.116 0.116 0.116c0.064 0 0.116-0.052 0.116-0.116v0c0-0.064-0.052-0.116-0.116-0.116v0z"></path>
<path d="M24.493 18.218c0 0.095-0.077 0.172-0.172 0.172s-0.172-0.077-0.172-0.172c0-0.095 0.077-0.172 0.172-0.172s0.172 0.077 0.172 0.172z"></path>
<path d="M24.321 18.446c-0.126 0-0.227-0.102-0.227-0.227s0.102-0.227 0.227-0.227c0.126 0 0.227 0.102 0.227 0.227v0c-0 0.125-0.102 0.227-0.227 0.227h-0zM24.321 18.103c-0.064 0-0.116 0.052-0.116 0.116s0.052 0.116 0.116 0.116c0.064 0 0.116-0.052 0.116-0.116v0c0-0.064-0.052-0.116-0.116-0.116v0z"></path>
<path d="M18.24 29.049c0 0.095-0.077 0.172-0.172 0.172s-0.172-0.077-0.172-0.172c0-0.095 0.077-0.172 0.172-0.172s0.172 0.077 0.172 0.172z"></path>
<path d="M18.069 29.276c-0.126 0-0.227-0.102-0.227-0.227s0.102-0.227 0.227-0.227c0.126 0 0.227 0.102 0.227 0.227v0c0 0.126-0.102 0.227-0.227 0.227v0zM18.069 28.933c-0.064 0-0.116 0.052-0.116 0.116s0.052 0.116 0.116 0.116c0.064 0 0.116-0.052 0.116-0.116v0c0-0.064-0.052-0.116-0.116-0.116v0z"></path>
<path d="M14.996 4.851c0 0.154-0.125 0.279-0.279 0.279s-0.279-0.125-0.279-0.279c0-0.154 0.125-0.279 0.279-0.279s0.279 0.125 0.279 0.279z"></path>
<path d="M14.716 5.241c-0.216 0-0.391-0.175-0.391-0.391s0.175-0.391 0.391-0.391c0.216 0 0.391 0.175 0.391 0.391v0c0 0.216-0.175 0.391-0.391 0.391v0zM14.716 4.683c-0.093 0-0.168 0.075-0.168 0.168s0.075 0.168 0.168 0.168c0.093 0 0.168-0.075 0.168-0.168v0c0-0.093-0.075-0.168-0.168-0.168v0z"></path>
<path d="M20.417 4.679c0 0.154-0.125 0.279-0.279 0.279s-0.279-0.125-0.279-0.279c0-0.154 0.125-0.279 0.279-0.279s0.279 0.125 0.279 0.279z"></path>
<path d="M20.14 5.070c-0.216 0-0.391-0.175-0.391-0.391s0.175-0.391 0.391-0.391c0.216 0 0.391 0.175 0.391 0.391v0c0 0.216-0.175 0.391-0.391 0.391v0zM20.14 4.511c-0.093 0-0.168 0.075-0.168 0.168s0.075 0.168 0.168 0.168c0.093 0 0.168-0.075 0.168-0.168v0c0-0.093-0.075-0.168-0.168-0.168v0z"></path>
<path d="M17.711 9.408c0 0.154-0.125 0.279-0.279 0.279s-0.279-0.125-0.279-0.279c0-0.154 0.125-0.279 0.279-0.279s0.279 0.125 0.279 0.279z"></path>
<path d="M17.432 9.799c-0.216 0-0.391-0.175-0.391-0.391s0.175-0.391 0.391-0.391c0.216 0 0.391 0.175 0.391 0.391v0c0 0.216-0.175 0.391-0.391 0.391v0zM17.432 9.241c-0.093 0-0.168 0.075-0.168 0.168s0.075 0.168 0.168 0.168c0.093 0 0.168-0.075 0.168-0.168v0c0-0.093-0.075-0.168-0.168-0.168v0z"></path>
<path d="M8.973 15.326c0 0.154-0.125 0.279-0.279 0.279s-0.279-0.125-0.279-0.279c0-0.154 0.125-0.279 0.279-0.279s0.279 0.125 0.279 0.279z"></path>
<path d="M8.693 15.717c-0.216 0-0.391-0.175-0.391-0.391s0.175-0.391 0.391-0.391c0.216 0 0.391 0.175 0.391 0.391v0c0 0.216-0.175 0.391-0.391 0.391v0zM8.693 15.158c-0.093 0-0.168 0.075-0.168 0.168s0.075 0.168 0.168 0.168c0.093 0 0.168-0.075 0.168-0.168v0c0-0.093-0.075-0.168-0.168-0.168v0z"></path>
<path d="M10.949 18.218c0 0.154-0.125 0.279-0.279 0.279s-0.279-0.125-0.279-0.279c0-0.154 0.125-0.279 0.279-0.279s0.279 0.125 0.279 0.279z"></path>
<path d="M10.669 18.61c-0.216 0-0.391-0.175-0.391-0.391s0.175-0.391 0.391-0.391c0.216 0 0.391 0.175 0.391 0.391v0c0 0.216-0.175 0.391-0.391 0.391v0zM10.669 18.051c-0.093 0-0.168 0.075-0.168 0.168s0.075 0.168 0.168 0.168c0.093 0 0.168-0.075 0.168-0.168v0c0-0.093-0.075-0.168-0.168-0.168v0z"></path>
<path d="M24.601 18.218c0 0.154-0.125 0.279-0.279 0.279s-0.279-0.125-0.279-0.279c0-0.154 0.125-0.279 0.279-0.279s0.279 0.125 0.279 0.279z"></path>
<path d="M24.321 18.61c-0.216 0-0.391-0.175-0.391-0.391s0.175-0.391 0.391-0.391c0.216 0 0.391 0.175 0.391 0.391v0c0 0.216-0.175 0.391-0.391 0.391v0zM24.321 18.051c-0.093 0-0.168 0.075-0.168 0.168s0.075 0.168 0.168 0.168c0.093 0 0.168-0.075 0.168-0.168v0c0-0.093-0.075-0.168-0.168-0.168v0z"></path>
<path d="M26.37 15.154c0 0.154-0.125 0.279-0.279 0.279s-0.279-0.125-0.279-0.279c0-0.154 0.125-0.279 0.279-0.279s0.279 0.125 0.279 0.279z"></path>
<path d="M26.090 15.545c-0.216 0-0.391-0.175-0.391-0.391s0.175-0.391 0.391-0.391c0.216 0 0.391 0.175 0.391 0.391v0c0 0.216-0.175 0.391-0.391 0.391v0zM26.090 14.987c-0.093 0-0.168 0.075-0.168 0.168s0.075 0.168 0.168 0.168c0.093 0 0.168-0.075 0.168-0.168v0c0-0.093-0.075-0.168-0.168-0.168v0z"></path>
<path d="M18.348 29.049c0 0.154-0.125 0.279-0.279 0.279s-0.279-0.125-0.279-0.279c0-0.154 0.125-0.279 0.279-0.279s0.279 0.125 0.279 0.279z"></path>
<path d="M18.069 29.44c-0.216 0-0.391-0.175-0.391-0.391s0.175-0.391 0.391-0.391c0.216 0 0.391 0.175 0.391 0.391v0c0 0.216-0.175 0.391-0.391 0.391v0zM18.069 28.881c-0.093 0-0.168 0.075-0.168 0.168s0.075 0.168 0.168 0.168c0.093 0 0.168-0.075 0.168-0.168v0c0-0.093-0.075-0.168-0.168-0.168v0z"></path>
</symbol>
<symbol id="icon-icon5" viewBox="0 0 32 32">
<title>icon5</title>
<path d="M16 32c-8.801-0.012-15.931-7.149-15.931-15.952 0-8.81 7.142-15.952 15.952-15.952s15.952 7.142 15.952 15.952c0 6.568-3.97 12.209-9.641 14.655l-0.104 0.040c-1.829 0.795-3.959 1.257-6.197 1.257-0.011 0-0.022 0-0.033-0h0.002zM16 0.089c-8.75 0.012-15.839 7.108-15.839 15.86 0 8.759 7.101 15.86 15.86 15.86s15.86-7.101 15.86-15.86c0-6.53-3.947-12.139-9.585-14.57l-0.103-0.040c-1.819-0.79-3.937-1.25-6.162-1.25-0.011 0-0.022 0-0.033 0h0.002z"></path>
<path d="M16 21.431c-5.898-0.001-10.679-4.783-10.679-10.681s4.782-10.681 10.681-10.681 10.681 4.782 10.681 10.681c0 2.951-1.196 5.622-3.131 7.555l-0 0c-1.922 1.931-4.582 3.126-7.522 3.126-0.011 0-0.022-0-0.033-0h0.002zM16 0.157c-5.85 0-10.593 4.743-10.593 10.593s4.743 10.593 10.593 10.593 10.593-4.743 10.593-10.593c0-2.925-1.186-5.573-3.103-7.49v0c-1.907-1.917-4.546-3.103-7.462-3.103-0.010 0-0.020 0-0.030 0h0.002z"></path>
<path d="M16 32c-0 0-0 0-0 0-5.899 0-10.681-4.782-10.681-10.681s4.782-10.681 10.681-10.681c5.899 0 10.681 4.782 10.681 10.681 0 2.95-1.195 5.62-3.128 7.553v0c-1.922 1.933-4.584 3.129-7.524 3.129-0.010 0-0.020 0-0.030-0h0.002zM16 10.726c-5.85 0-10.593 4.743-10.593 10.593s4.743 10.593 10.593 10.593 10.593-4.743 10.593-10.593c0-2.925-1.186-5.573-3.103-7.49v0c-1.906-1.916-4.545-3.103-7.462-3.103-0.010 0-0.020 0-0.030 0h0.002z"></path>
<path d="M16 21.363c-2.962 0-5.363-2.401-5.363-5.363s2.401-5.363 5.363-5.363c2.962 0 5.363 2.401 5.363 5.363v0c-0.004 2.96-2.402 5.359-5.363 5.363h-0zM16 10.726c-2.913 0-5.274 2.361-5.274 5.274s2.361 5.274 5.274 5.274c2.913 0 5.274-2.361 5.274-5.274v0c-0.003-2.912-2.363-5.271-5.274-5.274h-0z"></path>
<path d="M6.767 15.99h18.467v0.089h-18.467v-0.089z"></path>
<path d="M15.956 10.681h0.089v10.637h-0.089v-10.637z"></path>
<path d="M16.222 10.681c0 0.122-0.099 0.222-0.222 0.222s-0.222-0.099-0.222-0.222c0-0.122 0.099-0.222 0.222-0.222s0.222 0.099 0.222 0.222z"></path>
<path d="M16 10.992c-0.171 0-0.31-0.139-0.31-0.31s0.139-0.31 0.31-0.31c0.171 0 0.31 0.139 0.31 0.31v0c0 0.171-0.139 0.31-0.31 0.31v0zM16 10.548c-0.073 0-0.133 0.060-0.133 0.133s0.060 0.133 0.133 0.133c0.073 0 0.133-0.060 0.133-0.133v0c0-0.073-0.060-0.133-0.133-0.133v0z"></path>
<path d="M16.222 16c0 0.122-0.099 0.222-0.222 0.222s-0.222-0.099-0.222-0.222c0-0.122 0.099-0.222 0.222-0.222s0.222 0.099 0.222 0.222z"></path>
<path d="M16 16.31c-0.171 0-0.31-0.139-0.31-0.31s0.139-0.31 0.31-0.31c0.171 0 0.31 0.139 0.31 0.31v0c0 0.171-0.139 0.31-0.31 0.31v0zM16 15.867c-0.073 0-0.133 0.060-0.133 0.133s0.060 0.133 0.133 0.133c0.073 0 0.133-0.060 0.133-0.133v0c0-0.073-0.060-0.133-0.133-0.133v0z"></path>
<path d="M16.222 21.319c0 0.122-0.099 0.222-0.222 0.222s-0.222-0.099-0.222-0.222c0-0.122 0.099-0.222 0.222-0.222s0.222 0.099 0.222 0.222z"></path>
<path d="M16 21.629c-0.171 0-0.31-0.139-0.31-0.31s0.139-0.31 0.31-0.31c0.171 0 0.31 0.139 0.31 0.31v0c0 0.171-0.139 0.31-0.31 0.31v0zM16 21.186c-0.073 0-0.133 0.060-0.133 0.133s0.060 0.133 0.133 0.133c0.073 0 0.133-0.060 0.133-0.133v0c0-0.073-0.060-0.133-0.133-0.133v0z"></path>
<path d="M21.54 16c0 0.122-0.099 0.222-0.222 0.222s-0.222-0.099-0.222-0.222c0-0.122 0.099-0.222 0.222-0.222s0.222 0.099 0.222 0.222z"></path>
<path d="M21.319 16.31c-0.171 0-0.31-0.139-0.31-0.31s0.139-0.31 0.31-0.31c0.171 0 0.31 0.139 0.31 0.31v0c0 0.171-0.139 0.31-0.31 0.31v0zM21.319 15.867c-0.073 0-0.133 0.060-0.133 0.133s0.060 0.133 0.133 0.133c0.073 0 0.133-0.060 0.133-0.133v0c0-0.073-0.060-0.133-0.133-0.133v0z"></path>
<path d="M25.455 16c0 0.122-0.099 0.222-0.222 0.222s-0.222-0.099-0.222-0.222c0-0.122 0.099-0.222 0.222-0.222s0.222 0.099 0.222 0.222z"></path>
<path d="M25.233 16.31c-0.171 0-0.31-0.139-0.31-0.31s0.139-0.31 0.31-0.31c0.171 0 0.31 0.139 0.31 0.31v0c0 0.171-0.139 0.31-0.31 0.31v0zM25.233 15.867c-0.073 0-0.133 0.060-0.133 0.133s0.060 0.133 0.133 0.133c0.073 0 0.133-0.060 0.133-0.133v0c0-0.073-0.060-0.133-0.133-0.133v0z"></path>
<path d="M10.903 16c0 0.122-0.099 0.222-0.222 0.222s-0.222-0.099-0.222-0.222c0-0.122 0.099-0.222 0.222-0.222s0.222 0.099 0.222 0.222z"></path>
<path d="M10.681 16.31c-0.171 0-0.31-0.139-0.31-0.31s0.139-0.31 0.31-0.31c0.171 0 0.31 0.139 0.31 0.31v0c0 0.171-0.139 0.31-0.31 0.31v0zM10.681 15.867c-0.073 0-0.133 0.060-0.133 0.133s0.060 0.133 0.133 0.133c0.073 0 0.133-0.060 0.133-0.133v0c0-0.073-0.060-0.133-0.133-0.133v0z"></path>
<path d="M6.988 16.034c0 0.122-0.099 0.222-0.222 0.222s-0.222-0.099-0.222-0.222c0-0.122 0.099-0.222 0.222-0.222s0.222 0.099 0.222 0.222z"></path>
<path d="M6.767 16.344c-0.171 0-0.31-0.139-0.31-0.31s0.139-0.31 0.31-0.31c0.171 0 0.31 0.139 0.31 0.31v0c0 0.171-0.139 0.31-0.31 0.31v0zM6.767 15.901c-0.073 0-0.133 0.060-0.133 0.133s0.060 0.133 0.133 0.133c0.073 0 0.133-0.060 0.133-0.133v0c0-0.073-0.060-0.133-0.133-0.133v0z"></path>
</symbol>
<symbol id="icon-icon1" viewBox="0 0 32 32">
<title>icon1</title>
<path d="M16 24.066c-4.448 0-8.066-3.618-8.066-8.066s3.619-8.066 8.066-8.066 8.066 3.619 8.066 8.066-3.618 8.066-8.066 8.066zM16 8.111c-4.35 0-7.889 3.539-7.889 7.889s3.539 7.889 7.889 7.889 7.889-3.539 7.889-7.889-3.539-7.889-7.889-7.889z"></path>
<path d="M16 32c-4.423 0-8.022-3.599-8.022-8.022s3.599-8.022 8.022-8.022 8.022 3.599 8.022 8.022-3.599 8.022-8.022 8.022zM16 16.044c-4.375 0-7.934 3.559-7.934 7.934s3.559 7.934 7.934 7.934 7.934-3.559 7.934-7.934-3.559-7.934-7.934-7.934z"></path>
<path d="M16 16.044c-4.423 0-8.022-3.599-8.022-8.022s3.599-8.022 8.022-8.022 8.022 3.599 8.022 8.022-3.599 8.022-8.022 8.022zM16 0.089c-4.375 0-7.934 3.559-7.934 7.934s3.559 7.934 7.934 7.934 7.934-3.559 7.934-7.934-3.559-7.934-7.934-7.934z"></path>
<path d="M8.022 24.022c-4.423 0-8.022-3.599-8.022-8.022s3.599-8.022 8.022-8.022 8.022 3.599 8.022 8.022-3.599 8.022-8.022 8.022zM8.022 8.066c-4.375 0-7.934 3.559-7.934 7.934s3.559 7.934 7.934 7.934 7.934-3.559 7.934-7.934-3.559-7.934-7.934-7.934z"></path>
<path d="M23.978 24.022c-4.423 0-8.022-3.599-8.022-8.022s3.599-8.022 8.022-8.022 8.022 3.599 8.022 8.022-3.599 8.022-8.022 8.022zM23.978 8.066c-4.375 0-7.934 3.559-7.934 7.934s3.559 7.934 7.934 7.934 7.934-3.559 7.934-7.934-3.559-7.934-7.934-7.934z"></path>
<path d="M10.36 18.381c-4.423 0-8.022-3.599-8.022-8.022s3.599-8.022 8.022-8.022 8.022 3.598 8.022 8.022-3.599 8.022-8.022 8.022zM10.36 2.426c-4.375 0-7.934 3.559-7.934 7.934s3.559 7.934 7.934 7.934 7.934-3.559 7.934-7.934-3.559-7.934-7.934-7.934z"></path>
<path d="M21.65 18.381c-4.424 0-8.022-3.599-8.022-8.022s3.598-8.022 8.022-8.022 8.022 3.598 8.022 8.022-3.599 8.022-8.022 8.022zM21.65 2.426c-4.375 0-7.934 3.559-7.934 7.934s3.559 7.934 7.934 7.934 7.934-3.559 7.934-7.934-3.559-7.934-7.934-7.934z"></path>
<path d="M10.36 29.679c-4.423 0-8.022-3.598-8.022-8.022s3.599-8.022 8.022-8.022 8.022 3.599 8.022 8.022-3.599 8.022-8.022 8.022zM10.36 13.724c-4.375 0-7.934 3.559-7.934 7.934s3.559 7.934 7.934 7.934 7.934-3.559 7.934-7.934-3.559-7.934-7.934-7.934z"></path>
<path d="M21.65 29.679c-4.424 0-8.022-3.598-8.022-8.022s3.598-8.022 8.022-8.022 8.022 3.599 8.022 8.022-3.599 8.022-8.022 8.022zM21.65 13.724c-4.375 0-7.934 3.559-7.934 7.934s3.559 7.934 7.934 7.934 7.934-3.559 7.934-7.934-3.559-7.934-7.934-7.934z"></path>
<path d="M10.514 2.381c0 0.085-0.069 0.155-0.155 0.155s-0.155-0.069-0.155-0.155c0-0.085 0.069-0.155 0.155-0.155s0.155 0.069 0.155 0.155z"></path>
<path d="M10.36 2.58c-0.080-0.001-0.149-0.048-0.181-0.117l-0.001-0.001c-0.011-0.024-0.018-0.052-0.018-0.081 0-0.025 0.005-0.050 0.014-0.072l-0 0.001c0.029-0.076 0.102-0.129 0.186-0.129 0.11 0 0.199 0.089 0.199 0.199 0 0.081-0.049 0.151-0.118 0.182l-0.001 0.001c-0.024 0.011-0.051 0.018-0.080 0.018h-0zM10.257 2.342c-0.005 0.012-0.007 0.025-0.007 0.040 0 0.016 0.004 0.032 0.010 0.046l-0-0.001c0.012 0.027 0.034 0.047 0.061 0.057l0.001 0c0.012 0.005 0.025 0.007 0.039 0.007 0.061 0 0.11-0.049 0.11-0.11s-0.049-0.11-0.11-0.11c-0.047 0-0.087 0.029-0.103 0.070l-0 0.001z"></path>
<path d="M21.804 2.381c0 0.085-0.069 0.155-0.155 0.155s-0.155-0.069-0.155-0.155c0-0.085 0.069-0.155 0.155-0.155s0.155 0.069 0.155 0.155z"></path>
<path d="M21.649 2.58c-0.080-0.001-0.149-0.048-0.181-0.117l-0-0.001c-0.011-0.024-0.017-0.052-0.017-0.081 0-0.025 0.005-0.050 0.013-0.072l-0 0.001c0.029-0.075 0.102-0.128 0.186-0.128 0.080 0 0.15 0.048 0.181 0.116l0 0.001c0.011 0.024 0.018 0.052 0.018 0.081 0 0.025-0.005 0.050-0.014 0.072l0-0.001c-0.029 0.076-0.102 0.128-0.186 0.129v0zM21.649 2.27c-0.016 0-0.031 0.004-0.045 0.010l0.001-0c-0.027 0.012-0.047 0.034-0.058 0.060l-0 0.001c-0.004 0.012-0.007 0.025-0.007 0.039 0 0.017 0.004 0.032 0.010 0.046l-0-0.001c0.012 0.027 0.034 0.047 0.060 0.057l0.001 0c0.012 0.005 0.025 0.007 0.039 0.007 0.047 0 0.087-0.029 0.103-0.070l0-0.001c0.005-0.012 0.008-0.027 0.008-0.042s-0.003-0.030-0.009-0.043l0 0.001c-0.012-0.027-0.034-0.047-0.061-0.058l-0.001-0c-0.011-0.004-0.023-0.006-0.036-0.006-0.002 0-0.004 0-0.005 0h0z"></path>
<path d="M29.782 10.359c0 0.085-0.069 0.155-0.155 0.155s-0.155-0.069-0.155-0.155c0-0.085 0.069-0.155 0.155-0.155s0.155 0.069 0.155 0.155z"></path>
<path d="M29.627 10.558c-0.080-0.001-0.149-0.048-0.181-0.117l-0-0.001c-0.011-0.024-0.017-0.052-0.017-0.081 0-0.025 0.005-0.050 0.013-0.072l-0 0.001c0.029-0.075 0.102-0.128 0.186-0.128 0.080 0 0.15 0.048 0.181 0.116l0 0.001c0.011 0.024 0.018 0.052 0.018 0.081 0 0.025-0.005 0.050-0.014 0.072l0-0.001c-0.029 0.076-0.102 0.128-0.186 0.129v0zM29.627 10.248c-0.016 0-0.031 0.004-0.045 0.010l0.001-0c-0.027 0.012-0.047 0.034-0.058 0.060l-0 0.001c-0.004 0.012-0.007 0.025-0.007 0.039 0 0.017 0.004 0.032 0.010 0.046l-0-0.001c0.012 0.027 0.034 0.047 0.060 0.057l0.001 0c0.012 0.005 0.025 0.007 0.039 0.007 0.047 0 0.087-0.029 0.103-0.070l0-0.001c0.005-0.012 0.008-0.027 0.008-0.042s-0.003-0.030-0.009-0.043l0 0.001c-0.012-0.027-0.034-0.047-0.061-0.058l-0.001-0c-0.011-0.004-0.023-0.006-0.036-0.006-0.002 0-0.004 0-0.005 0h0z"></path>
<path d="M29.782 21.657c0 0.085-0.069 0.155-0.155 0.155s-0.155-0.069-0.155-0.155c0-0.085 0.069-0.155 0.155-0.155s0.155 0.069 0.155 0.155z"></path>
<path d="M29.627 21.856c-0 0-0 0-0 0-0.080 0-0.149-0.048-0.18-0.116l-0-0.001c-0.011-0.024-0.017-0.052-0.017-0.081 0-0.080 0.048-0.15 0.116-0.181l0.001-0c0.023-0.011 0.051-0.017 0.080-0.017 0.11 0 0.199 0.089 0.199 0.199 0 0.025-0.005 0.049-0.013 0.071l0-0.001c-0.029 0.075-0.101 0.128-0.185 0.128h-0zM29.627 21.546c-0.016 0-0.031 0.004-0.045 0.010l0.001-0c-0.027 0.012-0.047 0.034-0.058 0.061l-0 0.001c-0.004 0.012-0.007 0.025-0.007 0.039 0 0.016 0.004 0.032 0.010 0.046l-0-0.001c0.012 0.027 0.034 0.047 0.060 0.058l0.001 0c0.011 0.004 0.025 0.007 0.039 0.007 0.061 0 0.111-0.050 0.111-0.111 0-0.016-0.003-0.032-0.010-0.045l0 0.001c-0.018-0.038-0.056-0.065-0.101-0.065h-0z"></path>
<path d="M21.804 29.635c0 0.085-0.069 0.155-0.155 0.155s-0.155-0.069-0.155-0.155c0-0.085 0.069-0.155 0.155-0.155s0.155 0.069 0.155 0.155z"></path>
<path d="M21.649 29.834c-0 0-0 0-0 0-0.080 0-0.149-0.048-0.18-0.116l-0-0.001c-0.011-0.024-0.017-0.052-0.017-0.081 0-0.080 0.048-0.15 0.116-0.181l0.001-0c0.023-0.011 0.051-0.017 0.080-0.017 0.11 0 0.199 0.089 0.199 0.199 0 0.025-0.005 0.049-0.013 0.071l0-0.001c-0.029 0.075-0.101 0.128-0.185 0.128h-0zM21.649 29.524c-0.016 0-0.031 0.004-0.045 0.010l0.001-0c-0.027 0.012-0.047 0.034-0.058 0.061l-0 0.001c-0.004 0.012-0.007 0.025-0.007 0.039 0 0.016 0.004 0.032 0.010 0.046l-0-0.001c0.012 0.027 0.034 0.047 0.060 0.058l0.001 0c0.011 0.004 0.025 0.007 0.039 0.007 0.061 0 0.111-0.050 0.111-0.111 0-0.016-0.003-0.032-0.010-0.045l0 0.001c-0.018-0.038-0.056-0.065-0.101-0.065h-0z"></path>
<path d="M10.514 29.635c0 0.085-0.069 0.155-0.155 0.155s-0.155-0.069-0.155-0.155c0-0.085 0.069-0.155 0.155-0.155s0.155 0.069 0.155 0.155z"></path>
<path d="M10.36 29.834c-0.11-0-0.199-0.089-0.199-0.199 0-0.025 0.005-0.050 0.013-0.072l-0 0.001c0.031-0.073 0.101-0.123 0.184-0.123 0.11 0 0.199 0.089 0.199 0.199 0 0.023-0.004 0.046-0.011 0.067l0-0.001c-0.019 0.050-0.056 0.089-0.103 0.11l-0.001 0c-0.024 0.011-0.052 0.017-0.082 0.017v0zM10.257 29.596c-0.005 0.012-0.007 0.025-0.007 0.039 0 0.047 0.029 0.087 0.070 0.103l0.001 0c0.012 0.004 0.025 0.007 0.039 0.007 0.016 0 0.032-0.004 0.046-0.010l-0.001 0c0.027-0.012 0.047-0.034 0.058-0.060l0-0.001c0.004-0.012 0.007-0.025 0.007-0.039 0-0.017-0.004-0.032-0.010-0.046l0 0.001c-0.012-0.027-0.034-0.047-0.060-0.057l-0.001-0c-0.012-0.005-0.025-0.007-0.040-0.007-0.047 0-0.087 0.029-0.102 0.071l-0 0.001z"></path>
<path d="M2.537 21.657c0 0.085-0.069 0.155-0.155 0.155s-0.155-0.069-0.155-0.155c0-0.085 0.069-0.155 0.155-0.155s0.155 0.069 0.155 0.155z"></path>
<path d="M2.382 21.856c-0.11-0-0.199-0.089-0.199-0.199 0-0.025 0.005-0.050 0.013-0.072l-0 0.001c0.031-0.073 0.101-0.123 0.184-0.123 0.11 0 0.199 0.089 0.199 0.199 0 0.023-0.004 0.046-0.011 0.067l0-0.001c-0.019 0.050-0.056 0.089-0.103 0.11l-0.001 0c-0.024 0.011-0.052 0.017-0.082 0.017v0zM2.279 21.618c-0.004 0.010-0.006 0.022-0.006 0.035 0 0.061 0.049 0.11 0.11 0.11 0.045 0 0.084-0.027 0.101-0.066l0-0.001c0.004-0.012 0.007-0.025 0.007-0.039 0-0.017-0.004-0.032-0.010-0.046l0 0.001c-0.012-0.027-0.034-0.047-0.060-0.057l-0.001-0c-0.012-0.005-0.025-0.007-0.040-0.007-0.047 0-0.087 0.029-0.102 0.071l-0 0.001z"></path>
<path d="M2.537 10.359c0 0.085-0.069 0.155-0.155 0.155s-0.155-0.069-0.155-0.155c0-0.085 0.069-0.155 0.155-0.155s0.155 0.069 0.155 0.155z"></path>
<path d="M2.382 10.558c-0.080-0.001-0.149-0.048-0.181-0.117l-0.001-0.001c-0.011-0.024-0.018-0.052-0.018-0.081 0-0.025 0.005-0.050 0.014-0.072l-0 0.001c0.029-0.076 0.102-0.129 0.186-0.129 0.11 0 0.199 0.089 0.199 0.199 0 0.081-0.049 0.151-0.118 0.182l-0.001 0.001c-0.024 0.011-0.051 0.018-0.080 0.018h-0zM2.279 10.32c-0.005 0.012-0.007 0.025-0.007 0.040 0 0.016 0.004 0.032 0.010 0.046l-0-0.001c0.012 0.027 0.034 0.047 0.061 0.057l0.001 0c0.012 0.005 0.025 0.007 0.039 0.007 0.061 0 0.11-0.049 0.11-0.11s-0.049-0.11-0.11-0.11c-0.047 0-0.087 0.029-0.103 0.070l-0 0.001z"></path>
<path d="M12.197 9.090c0 0.085-0.069 0.155-0.155 0.155s-0.155-0.069-0.155-0.155c0-0.085 0.069-0.155 0.155-0.155s0.155 0.069 0.155 0.155z"></path>
<path d="M12.043 9.289c-0 0-0 0-0 0-0.025 0-0.050-0.005-0.072-0.013l0.001 0c-0.050-0.019-0.089-0.056-0.11-0.103l-0.001-0.001c-0.011-0.024-0.018-0.052-0.018-0.081 0-0.025 0.005-0.050 0.014-0.072l-0 0.001c0.029-0.076 0.101-0.128 0.186-0.128 0.025 0 0.050 0.005 0.072 0.014l-0.001-0c0.075 0.030 0.127 0.102 0.127 0.186 0 0.11-0.089 0.199-0.198 0.199h-0zM12.043 8.979c-0.047 0-0.087 0.029-0.103 0.070l-0 0.001c-0.004 0.012-0.007 0.025-0.007 0.039 0 0.016 0.004 0.032 0.010 0.046l-0-0.001c0.012 0.027 0.034 0.048 0.061 0.058l0.001 0c0.012 0.005 0.026 0.008 0.040 0.008 0.061 0 0.11-0.049 0.11-0.11s-0.049-0.11-0.11-0.11c-0 0-0.001 0-0.001 0h0z"></path>
<path d="M20.183 9.090c0 0.085-0.069 0.155-0.155 0.155s-0.155-0.069-0.155-0.155c0-0.085 0.069-0.155 0.155-0.155s0.155 0.069 0.155 0.155z"></path>
<path d="M20.029 9.289c-0 0-0 0-0.001 0-0.025 0-0.049-0.005-0.071-0.013l0.001 0c-0.076-0.030-0.128-0.102-0.128-0.186 0-0.025 0.005-0.049 0.013-0.072l-0 0.001c0.029-0.076 0.102-0.129 0.186-0.129 0.11 0 0.199 0.089 0.199 0.199s-0.089 0.199-0.199 0.199c-0 0-0 0-0 0h0zM19.926 9.051c-0.005 0.012-0.007 0.025-0.007 0.039 0 0.061 0.049 0.11 0.11 0.11s0.11-0.049 0.11-0.11c0-0.047-0.029-0.087-0.070-0.103l-0.001-0c-0.012-0.005-0.025-0.007-0.039-0.007-0.047 0-0.087 0.029-0.103 0.070l-0 0.001z"></path>
<path d="M20.142 22.916c0 0.085-0.069 0.155-0.155 0.155s-0.155-0.069-0.155-0.155c0-0.085 0.069-0.155 0.155-0.155s0.155 0.069 0.155 0.155z"></path>
<path d="M19.989 23.115c-0.11-0-0.199-0.089-0.199-0.199 0-0.025 0.005-0.050 0.013-0.072l-0 0.001c0.030-0.075 0.102-0.128 0.186-0.128 0.025 0 0.050 0.005 0.072 0.013l-0.001-0c0.075 0.030 0.128 0.102 0.128 0.186 0 0.11-0.088 0.198-0.198 0.199h-0zM19.886 22.876c-0.005 0.012-0.007 0.025-0.007 0.039 0 0.061 0.049 0.11 0.11 0.11 0.016 0 0.032-0.004 0.046-0.010l-0.001 0c0.039-0.018 0.065-0.056 0.065-0.101 0-0.016-0.003-0.032-0.010-0.045l0 0.001c-0.018-0.039-0.056-0.065-0.101-0.065-0.047 0-0.087 0.029-0.103 0.070l-0 0.001z"></path>
<path d="M12.192 22.916c0 0.085-0.069 0.155-0.155 0.155s-0.155-0.069-0.155-0.155c0-0.085 0.069-0.155 0.155-0.155s0.155 0.069 0.155 0.155z"></path>
<path d="M12.038 23.115c-0.025-0-0.050-0.005-0.072-0.014l0.001 0c-0.076-0.029-0.128-0.101-0.128-0.186 0-0.026 0.005-0.050 0.014-0.072l-0 0.001c0.029-0.076 0.102-0.128 0.186-0.128 0.080 0 0.15 0.048 0.181 0.116l0.001 0.001c0.011 0.024 0.018 0.052 0.018 0.081 0 0.080-0.048 0.15-0.116 0.181l-0.001 0c-0.024 0.011-0.052 0.018-0.081 0.018-0 0-0 0-0 0h0zM12.038 22.805c-0.047 0-0.087 0.029-0.103 0.070l-0 0.001c-0.005 0.012-0.008 0.026-0.008 0.040 0 0.061 0.049 0.11 0.11 0.11 0.017 0 0.032-0.004 0.046-0.010l-0.001 0c0.027-0.012 0.048-0.034 0.058-0.061l0-0.001c0.005-0.012 0.007-0.025 0.007-0.039 0-0.016-0.004-0.032-0.010-0.046l0 0.001c-0.012-0.027-0.034-0.047-0.060-0.058l-0.001-0c-0.011-0.004-0.025-0.006-0.038-0.006-0 0-0.001 0-0.001 0h0z"></path>
<path d="M10.581 2.381c0 0.122-0.099 0.222-0.222 0.222s-0.222-0.099-0.222-0.222c0-0.122 0.099-0.222 0.222-0.222s0.222 0.099 0.222 0.222z"></path>
<path d="M10.36 2.692c-0.171 0-0.31-0.139-0.31-0.31s0.139-0.31 0.31-0.31c0.171 0 0.31 0.139 0.31 0.31v0c0 0.171-0.139 0.31-0.31 0.31v0zM10.36 2.248c-0.073 0-0.133 0.060-0.133 0.133s0.060 0.133 0.133 0.133c0.073 0 0.133-0.060 0.133-0.133v0c0-0.073-0.060-0.133-0.133-0.133v0z"></path>
<path d="M2.603 10.359c0 0.122-0.099 0.222-0.222 0.222s-0.222-0.099-0.222-0.222c0-0.122 0.099-0.222 0.222-0.222s0.222 0.099 0.222 0.222z"></path>
<path d="M2.382 10.669c-0.171 0-0.31-0.139-0.31-0.31s0.139-0.31 0.31-0.31c0.171 0 0.31 0.139 0.31 0.31v0c0 0.171-0.139 0.31-0.31 0.31v0zM2.382 10.226c-0.073 0-0.133 0.060-0.133 0.133s0.060 0.133 0.133 0.133c0.073 0 0.133-0.060 0.133-0.133v0c0-0.073-0.060-0.133-0.133-0.133v0z"></path>
<path d="M2.603 21.657c0 0.122-0.099 0.222-0.222 0.222s-0.222-0.099-0.222-0.222c0-0.122 0.099-0.222 0.222-0.222s0.222 0.099 0.222 0.222z"></path>
<path d="M2.382 21.967c-0.171 0-0.31-0.139-0.31-0.31s0.139-0.31 0.31-0.31c0.171 0 0.31 0.139 0.31 0.31v0c0 0.171-0.139 0.31-0.31 0.31v0zM2.382 21.524c-0.073 0-0.133 0.060-0.133 0.133s0.060 0.133 0.133 0.133c0.073 0 0.133-0.060 0.133-0.133v0c0-0.073-0.060-0.133-0.133-0.133v0z"></path>
<path d="M10.581 29.635c0 0.122-0.099 0.222-0.222 0.222s-0.222-0.099-0.222-0.222c0-0.122 0.099-0.222 0.222-0.222s0.222 0.099 0.222 0.222z"></path>
<path d="M10.36 29.945c-0.171 0-0.31-0.139-0.31-0.31s0.139-0.31 0.31-0.31c0.171 0 0.31 0.139 0.31 0.31v0c0 0.171-0.139 0.31-0.31 0.31v0zM10.36 29.502c-0.073 0-0.133 0.060-0.133 0.133s0.060 0.133 0.133 0.133c0.073 0 0.133-0.060 0.133-0.133v0c0-0.073-0.060-0.133-0.133-0.133v0z"></path>
<path d="M12.259 22.916c0 0.122-0.099 0.222-0.222 0.222s-0.222-0.099-0.222-0.222c0-0.122 0.099-0.222 0.222-0.222s0.222 0.099 0.222 0.222z"></path>
<path d="M12.038 23.224c-0.171 0-0.31-0.139-0.31-0.31s0.139-0.31 0.31-0.31c0.171 0 0.31 0.139 0.31 0.31v0c0 0.171-0.139 0.31-0.31 0.31v0zM12.038 22.781c-0.073 0-0.133 0.060-0.133 0.133s0.060 0.133 0.133 0.133c0.073 0 0.133-0.060 0.133-0.133v0c0-0.073-0.060-0.133-0.133-0.133v0z"></path>
<path d="M20.209 22.916c0 0.122-0.099 0.222-0.222 0.222s-0.222-0.099-0.222-0.222c0-0.122 0.099-0.222 0.222-0.222s0.222 0.099 0.222 0.222z"></path>
<path d="M19.989 23.224c-0.171 0-0.31-0.139-0.31-0.31s0.139-0.31 0.31-0.31c0.171 0 0.31 0.139 0.31 0.31v0c0 0.171-0.139 0.31-0.31 0.31v0zM19.989 22.781c-0.073 0-0.133 0.060-0.133 0.133s0.060 0.133 0.133 0.133c0.073 0 0.133-0.060 0.133-0.133v0c0-0.073-0.060-0.133-0.133-0.133v0z"></path>
<path d="M21.871 29.635c0 0.122-0.099 0.222-0.222 0.222s-0.222-0.099-0.222-0.222c0-0.122 0.099-0.222 0.222-0.222s0.222 0.099 0.222 0.222z"></path>
<path d="M21.65 29.945c-0.171 0-0.31-0.139-0.31-0.31s0.139-0.31 0.31-0.31c0.171 0 0.31 0.139 0.31 0.31v0c0 0.171-0.139 0.31-0.31 0.31v0zM21.65 29.502c-0.073 0-0.133 0.060-0.133 0.133s0.060 0.133 0.133 0.133c0.073 0 0.133-0.060 0.133-0.133v0c0-0.073-0.060-0.133-0.133-0.133v0z"></path>
<path d="M29.849 21.657c0 0.122-0.099 0.222-0.222 0.222s-0.222-0.099-0.222-0.222c0-0.122 0.099-0.222 0.222-0.222s0.222 0.099 0.222 0.222z"></path>
<path d="M29.627 21.967c-0.171 0-0.31-0.139-0.31-0.31s0.139-0.31 0.31-0.31c0.171 0 0.31 0.139 0.31 0.31v0c0 0.171-0.139 0.31-0.31 0.31v0zM29.627 21.524c-0.073 0-0.133 0.060-0.133 0.133s0.060 0.133 0.133 0.133c0.073 0 0.133-0.060 0.133-0.133v0c0-0.073-0.060-0.133-0.133-0.133v0z"></path>
<path d="M29.849 10.359c0 0.122-0.099 0.222-0.222 0.222s-0.222-0.099-0.222-0.222c0-0.122 0.099-0.222 0.222-0.222s0.222 0.099 0.222 0.222z"></path>
<path d="M29.627 10.669c-0.171 0-0.31-0.139-0.31-0.31s0.139-0.31 0.31-0.31c0.171 0 0.31 0.139 0.31 0.31v0c0 0.171-0.139 0.31-0.31 0.31v0zM29.627 10.226c-0.073 0-0.133 0.060-0.133 0.133s0.060 0.133 0.133 0.133c0.073 0 0.133-0.060 0.133-0.133v0c0-0.073-0.060-0.133-0.133-0.133v0z"></path>
<path d="M20.25 9.090c0 0.122-0.099 0.222-0.222 0.222s-0.222-0.099-0.222-0.222c0-0.122 0.099-0.222 0.222-0.222s0.222 0.099 0.222 0.222z"></path>
<path d="M20.029 9.401c-0.171 0-0.31-0.139-0.31-0.31s0.139-0.31 0.31-0.31c0.171 0 0.31 0.139 0.31 0.31v0c0 0.171-0.139 0.31-0.31 0.31v0zM20.029 8.957c-0.073 0-0.133 0.060-0.133 0.133s0.060 0.133 0.133 0.133c0.073 0 0.133-0.060 0.133-0.133v0c0-0.073-0.060-0.133-0.133-0.133v0z"></path>
<path d="M12.264 9.090c0 0.122-0.099 0.222-0.222 0.222s-0.222-0.099-0.222-0.222c0-0.122 0.099-0.222 0.222-0.222s0.222 0.099 0.222 0.222z"></path>
<path d="M12.043 9.401c-0.171 0-0.31-0.139-0.31-0.31s0.139-0.31 0.31-0.31c0.171 0 0.31 0.139 0.31 0.31v0c0 0.171-0.139 0.31-0.31 0.31v0zM12.043 8.957c-0.073 0-0.133 0.060-0.133 0.133s0.060 0.133 0.133 0.133c0.073 0 0.133-0.060 0.133-0.133v0c0-0.073-0.060-0.133-0.133-0.133v0z"></path>
<path d="M21.871 2.381c0 0.122-0.099 0.222-0.222 0.222s-0.222-0.099-0.222-0.222c0-0.122 0.099-0.222 0.222-0.222s0.222 0.099 0.222 0.222z"></path>
<path d="M21.65 2.692c-0.171 0-0.31-0.139-0.31-0.31s0.139-0.31 0.31-0.31c0.171 0 0.31 0.139 0.31 0.31v0c0 0.171-0.139 0.31-0.31 0.31v0zM21.65 2.248c-0.073 0-0.133 0.060-0.133 0.133s0.060 0.133 0.133 0.133c0.073 0 0.133-0.060 0.133-0.133v0c0-0.073-0.060-0.133-0.133-0.133v0z"></path>
</symbol>
</defs>
</svg>
